<?xml version="1.0" encoding="utf-8" standalone="no"?>
<!DOCTYPE svg PUBLIC "-//W3C//DTD SVG 1.1//EN"
  "http://www.w3.org/Graphics/SVG/1.1/DTD/svg11.dtd">
<svg xmlns:xlink="http://www.w3.org/1999/xlink" width="408.10125pt" height="310.86825pt" viewBox="0 0 408.10125 310.86825" xmlns="http://www.w3.org/2000/svg" version="1.1">
 <metadata>
  <rdf:RDF xmlns:dc="http://purl.org/dc/elements/1.1/" xmlns:cc="http://creativecommons.org/ns#" xmlns:rdf="http://www.w3.org/1999/02/22-rdf-syntax-ns#">
   <cc:Work>
    <dc:type rdf:resource="http://purl.org/dc/dcmitype/StillImage"/>
    <dc:date>2022-04-21T23:33:00.169552</dc:date>
    <dc:format>image/svg+xml</dc:format>
    <dc:creator>
     <cc:Agent>
      <dc:title>Matplotlib v3.5.1, https://matplotlib.org/</dc:title>
     </cc:Agent>
    </dc:creator>
   </cc:Work>
  </rdf:RDF>
 </metadata>
 <defs>
  <style type="text/css">*{stroke-linejoin: round; stroke-linecap: butt}</style>
 </defs>
 <g id="figure_1">
  <g id="patch_1">
   <path d="M 0 310.86825 
L 408.10125 310.86825 
L 408.10125 0 
L 0 0 
z
" style="fill: #ffffff"/>
  </g>
  <g id="axes_1">
   <g id="patch_2">
    <path d="M 43.78125 273.312 
L 400.90125 273.312 
L 400.90125 7.2 
L 43.78125 7.2 
z
" style="fill: #ffffff"/>
   </g>
   <g id="patch_3">
    <path d="M 61.304601 273.312 
L 62.918826 273.312 
L 62.918826 266.886761 
L 61.304601 266.886761 
z
" clip-path="url(#pe24fc015ea)" style="fill: #1f77b4"/>
   </g>
   <g id="patch_4">
    <path d="M 62.918826 273.312 
L 64.53305 273.312 
L 64.53305 265.45893 
L 62.918826 265.45893 
z
" clip-path="url(#pe24fc015ea)" style="fill: #1f77b4"/>
   </g>
   <g id="patch_5">
    <path d="M 64.53305 273.312 
L 66.147274 273.312 
L 66.147274 259.03369 
L 64.53305 259.03369 
z
" clip-path="url(#pe24fc015ea)" style="fill: #1f77b4"/>
   </g>
   <g id="patch_6">
    <path d="M 66.147274 273.312 
L 67.761499 273.312 
L 67.761499 259.03369 
L 66.147274 259.03369 
z
" clip-path="url(#pe24fc015ea)" style="fill: #1f77b4"/>
   </g>
   <g id="patch_7">
    <path d="M 67.761499 273.312 
L 69.375723 273.312 
L 69.375723 258.319775 
L 67.761499 258.319775 
z
" clip-path="url(#pe24fc015ea)" style="fill: #1f77b4"/>
   </g>
   <g id="patch_8">
    <path d="M 69.375723 273.312 
L 70.989947 273.312 
L 70.989947 253.322366 
L 69.375723 253.322366 
z
" clip-path="url(#pe24fc015ea)" style="fill: #1f77b4"/>
   </g>
   <g id="patch_9">
    <path d="M 70.989947 273.312 
L 72.604172 273.312 
L 72.604172 244.041465 
L 70.989947 244.041465 
z
" clip-path="url(#pe24fc015ea)" style="fill: #1f77b4"/>
   </g>
   <g id="patch_10">
    <path d="M 72.604172 273.312 
L 74.218396 273.312 
L 74.218396 241.185803 
L 72.604172 241.185803 
z
" clip-path="url(#pe24fc015ea)" style="fill: #1f77b4"/>
   </g>
   <g id="patch_11">
    <path d="M 74.218396 273.312 
L 75.83262 273.312 
L 75.83262 246.897127 
L 74.218396 246.897127 
z
" clip-path="url(#pe24fc015ea)" style="fill: #1f77b4"/>
   </g>
   <g id="patch_12">
    <path d="M 75.83262 273.312 
L 77.446845 273.312 
L 77.446845 234.760563 
L 75.83262 234.760563 
z
" clip-path="url(#pe24fc015ea)" style="fill: #1f77b4"/>
   </g>
   <g id="patch_13">
    <path d="M 77.446845 273.312 
L 79.061069 273.312 
L 79.061069 225.479662 
L 77.446845 225.479662 
z
" clip-path="url(#pe24fc015ea)" style="fill: #1f77b4"/>
   </g>
   <g id="patch_14">
    <path d="M 79.061069 273.312 
L 80.675293 273.312 
L 80.675293 226.193577 
L 79.061069 226.193577 
z
" clip-path="url(#pe24fc015ea)" style="fill: #1f77b4"/>
   </g>
   <g id="patch_15">
    <path d="M 80.675293 273.312 
L 82.289518 273.312 
L 82.289518 223.337915 
L 80.675293 223.337915 
z
" clip-path="url(#pe24fc015ea)" style="fill: #1f77b4"/>
   </g>
   <g id="patch_16">
    <path d="M 82.289518 273.312 
L 83.903742 273.312 
L 83.903742 220.482254 
L 82.289518 220.482254 
z
" clip-path="url(#pe24fc015ea)" style="fill: #1f77b4"/>
   </g>
   <g id="patch_17">
    <path d="M 83.903742 273.312 
L 85.517966 273.312 
L 85.517966 222.624 
L 83.903742 222.624 
z
" clip-path="url(#pe24fc015ea)" style="fill: #1f77b4"/>
   </g>
   <g id="patch_18">
    <path d="M 85.517966 273.312 
L 87.132191 273.312 
L 87.132191 204.776113 
L 85.517966 204.776113 
z
" clip-path="url(#pe24fc015ea)" style="fill: #1f77b4"/>
   </g>
   <g id="patch_19">
    <path d="M 87.132191 273.312 
L 88.746415 273.312 
L 88.746415 215.484845 
L 87.132191 215.484845 
z
" clip-path="url(#pe24fc015ea)" style="fill: #1f77b4"/>
   </g>
   <g id="patch_20">
    <path d="M 88.746415 273.312 
L 90.360639 273.312 
L 90.360639 199.064789 
L 88.746415 199.064789 
z
" clip-path="url(#pe24fc015ea)" style="fill: #1f77b4"/>
   </g>
   <g id="patch_21">
    <path d="M 90.360639 273.312 
L 91.974864 273.312 
L 91.974864 208.34569 
L 90.360639 208.34569 
z
" clip-path="url(#pe24fc015ea)" style="fill: #1f77b4"/>
   </g>
   <g id="patch_22">
    <path d="M 91.974864 273.312 
L 93.589088 273.312 
L 93.589088 204.062197 
L 91.974864 204.062197 
z
" clip-path="url(#pe24fc015ea)" style="fill: #1f77b4"/>
   </g>
   <g id="patch_23">
    <path d="M 93.589088 273.312 
L 95.203312 273.312 
L 95.203312 194.06738 
L 93.589088 194.06738 
z
" clip-path="url(#pe24fc015ea)" style="fill: #1f77b4"/>
   </g>
   <g id="patch_24">
    <path d="M 95.203312 273.312 
L 96.817537 273.312 
L 96.817537 196.209127 
L 95.203312 196.209127 
z
" clip-path="url(#pe24fc015ea)" style="fill: #1f77b4"/>
   </g>
   <g id="patch_25">
    <path d="M 96.817537 273.312 
L 98.431761 273.312 
L 98.431761 196.923042 
L 96.817537 196.923042 
z
" clip-path="url(#pe24fc015ea)" style="fill: #1f77b4"/>
   </g>
   <g id="patch_26">
    <path d="M 98.431761 273.312 
L 100.045985 273.312 
L 100.045985 195.495211 
L 98.431761 195.495211 
z
" clip-path="url(#pe24fc015ea)" style="fill: #1f77b4"/>
   </g>
   <g id="patch_27">
    <path d="M 100.045985 273.312 
L 101.66021 273.312 
L 101.66021 175.505577 
L 100.045985 175.505577 
z
" clip-path="url(#pe24fc015ea)" style="fill: #1f77b4"/>
   </g>
   <g id="patch_28">
    <path d="M 101.66021 273.312 
L 103.274434 273.312 
L 103.274434 174.791662 
L 101.66021 174.791662 
z
" clip-path="url(#pe24fc015ea)" style="fill: #1f77b4"/>
   </g>
   <g id="patch_29">
    <path d="M 103.274434 273.312 
L 104.888658 273.312 
L 104.888658 178.361239 
L 103.274434 178.361239 
z
" clip-path="url(#pe24fc015ea)" style="fill: #1f77b4"/>
   </g>
   <g id="patch_30">
    <path d="M 104.888658 273.312 
L 106.502883 273.312 
L 106.502883 181.930817 
L 104.888658 181.930817 
z
" clip-path="url(#pe24fc015ea)" style="fill: #1f77b4"/>
   </g>
   <g id="patch_31">
    <path d="M 106.502883 273.312 
L 108.117107 273.312 
L 108.117107 176.219493 
L 106.502883 176.219493 
z
" clip-path="url(#pe24fc015ea)" style="fill: #1f77b4"/>
   </g>
   <g id="patch_32">
    <path d="M 108.117107 273.312 
L 109.731332 273.312 
L 109.731332 174.077746 
L 108.117107 174.077746 
z
" clip-path="url(#pe24fc015ea)" style="fill: #1f77b4"/>
   </g>
   <g id="patch_33">
    <path d="M 109.731332 273.312 
L 111.345556 273.312 
L 111.345556 186.928225 
L 109.731332 186.928225 
z
" clip-path="url(#pe24fc015ea)" style="fill: #1f77b4"/>
   </g>
   <g id="patch_34">
    <path d="M 111.345556 273.312 
L 112.95978 273.312 
L 112.95978 162.655099 
L 111.345556 162.655099 
z
" clip-path="url(#pe24fc015ea)" style="fill: #1f77b4"/>
   </g>
   <g id="patch_35">
    <path d="M 112.95978 273.312 
L 114.574005 273.312 
L 114.574005 169.080338 
L 112.95978 169.080338 
z
" clip-path="url(#pe24fc015ea)" style="fill: #1f77b4"/>
   </g>
   <g id="patch_36">
    <path d="M 114.574005 273.312 
L 116.188229 273.312 
L 116.188229 153.374197 
L 114.574005 153.374197 
z
" clip-path="url(#pe24fc015ea)" style="fill: #1f77b4"/>
   </g>
   <g id="patch_37">
    <path d="M 116.188229 273.312 
L 117.802453 273.312 
L 117.802453 166.224676 
L 116.188229 166.224676 
z
" clip-path="url(#pe24fc015ea)" style="fill: #1f77b4"/>
   </g>
   <g id="patch_38">
    <path d="M 117.802453 273.312 
L 119.416678 273.312 
L 119.416678 157.65769 
L 117.802453 157.65769 
z
" clip-path="url(#pe24fc015ea)" style="fill: #1f77b4"/>
   </g>
   <g id="patch_39">
    <path d="M 119.416678 273.312 
L 121.030902 273.312 
L 121.030902 145.521127 
L 119.416678 145.521127 
z
" clip-path="url(#pe24fc015ea)" style="fill: #1f77b4"/>
   </g>
   <g id="patch_40">
    <path d="M 121.030902 273.312 
L 122.645126 273.312 
L 122.645126 151.946366 
L 121.030902 151.946366 
z
" clip-path="url(#pe24fc015ea)" style="fill: #1f77b4"/>
   </g>
   <g id="patch_41">
    <path d="M 122.645126 273.312 
L 124.259351 273.312 
L 124.259351 146.948958 
L 122.645126 146.948958 
z
" clip-path="url(#pe24fc015ea)" style="fill: #1f77b4"/>
   </g>
   <g id="patch_42">
    <path d="M 124.259351 273.312 
L 125.873575 273.312 
L 125.873575 150.518535 
L 124.259351 150.518535 
z
" clip-path="url(#pe24fc015ea)" style="fill: #1f77b4"/>
   </g>
   <g id="patch_43">
    <path d="M 125.873575 273.312 
L 127.487799 273.312 
L 127.487799 148.376789 
L 125.873575 148.376789 
z
" clip-path="url(#pe24fc015ea)" style="fill: #1f77b4"/>
   </g>
   <g id="patch_44">
    <path d="M 127.487799 273.312 
L 129.102024 273.312 
L 129.102024 146.235042 
L 127.487799 146.235042 
z
" clip-path="url(#pe24fc015ea)" style="fill: #1f77b4"/>
   </g>
   <g id="patch_45">
    <path d="M 129.102024 273.312 
L 130.716248 273.312 
L 130.716248 126.245408 
L 129.102024 126.245408 
z
" clip-path="url(#pe24fc015ea)" style="fill: #1f77b4"/>
   </g>
   <g id="patch_46">
    <path d="M 130.716248 273.312 
L 132.330472 273.312 
L 132.330472 132.670648 
L 130.716248 132.670648 
z
" clip-path="url(#pe24fc015ea)" style="fill: #1f77b4"/>
   </g>
   <g id="patch_47">
    <path d="M 132.330472 273.312 
L 133.944697 273.312 
L 133.944697 130.528901 
L 132.330472 130.528901 
z
" clip-path="url(#pe24fc015ea)" style="fill: #1f77b4"/>
   </g>
   <g id="patch_48">
    <path d="M 133.944697 273.312 
L 135.558921 273.312 
L 135.558921 122.675831 
L 133.944697 122.675831 
z
" clip-path="url(#pe24fc015ea)" style="fill: #1f77b4"/>
   </g>
   <g id="patch_49">
    <path d="M 135.558921 273.312 
L 137.173145 273.312 
L 137.173145 115.536676 
L 135.558921 115.536676 
z
" clip-path="url(#pe24fc015ea)" style="fill: #1f77b4"/>
   </g>
   <g id="patch_50">
    <path d="M 137.173145 273.312 
L 138.78737 273.312 
L 138.78737 122.675831 
L 137.173145 122.675831 
z
" clip-path="url(#pe24fc015ea)" style="fill: #1f77b4"/>
   </g>
   <g id="patch_51">
    <path d="M 138.78737 273.312 
L 140.401594 273.312 
L 140.401594 110.539268 
L 138.78737 110.539268 
z
" clip-path="url(#pe24fc015ea)" style="fill: #1f77b4"/>
   </g>
   <g id="patch_52">
    <path d="M 140.401594 273.312 
L 142.015818 273.312 
L 142.015818 117.678423 
L 140.401594 117.678423 
z
" clip-path="url(#pe24fc015ea)" style="fill: #1f77b4"/>
   </g>
   <g id="patch_53">
    <path d="M 142.015818 273.312 
L 143.630043 273.312 
L 143.630043 108.397521 
L 142.015818 108.397521 
z
" clip-path="url(#pe24fc015ea)" style="fill: #1f77b4"/>
   </g>
   <g id="patch_54">
    <path d="M 143.630043 273.312 
L 145.244267 273.312 
L 145.244267 118.392338 
L 143.630043 118.392338 
z
" clip-path="url(#pe24fc015ea)" style="fill: #1f77b4"/>
   </g>
   <g id="patch_55">
    <path d="M 145.244267 273.312 
L 146.858491 273.312 
L 146.858491 126.245408 
L 145.244267 126.245408 
z
" clip-path="url(#pe24fc015ea)" style="fill: #1f77b4"/>
   </g>
   <g id="patch_56">
    <path d="M 146.858491 273.312 
L 148.472716 273.312 
L 148.472716 112.681014 
L 146.858491 112.681014 
z
" clip-path="url(#pe24fc015ea)" style="fill: #1f77b4"/>
   </g>
   <g id="patch_57">
    <path d="M 148.472716 273.312 
L 150.08694 273.312 
L 150.08694 99.830535 
L 148.472716 99.830535 
z
" clip-path="url(#pe24fc015ea)" style="fill: #1f77b4"/>
   </g>
   <g id="patch_58">
    <path d="M 150.08694 273.312 
L 151.701164 273.312 
L 151.701164 123.389746 
L 150.08694 123.389746 
z
" clip-path="url(#pe24fc015ea)" style="fill: #1f77b4"/>
   </g>
   <g id="patch_59">
    <path d="M 151.701164 273.312 
L 153.315389 273.312 
L 153.315389 99.11662 
L 151.701164 99.11662 
z
" clip-path="url(#pe24fc015ea)" style="fill: #1f77b4"/>
   </g>
   <g id="patch_60">
    <path d="M 153.315389 273.312 
L 154.929613 273.312 
L 154.929613 109.825352 
L 153.315389 109.825352 
z
" clip-path="url(#pe24fc015ea)" style="fill: #1f77b4"/>
   </g>
   <g id="patch_61">
    <path d="M 154.929613 273.312 
L 156.543837 273.312 
L 156.543837 86.266141 
L 154.929613 86.266141 
z
" clip-path="url(#pe24fc015ea)" style="fill: #1f77b4"/>
   </g>
   <g id="patch_62">
    <path d="M 156.543837 273.312 
L 158.158062 273.312 
L 158.158062 108.397521 
L 156.543837 108.397521 
z
" clip-path="url(#pe24fc015ea)" style="fill: #1f77b4"/>
   </g>
   <g id="patch_63">
    <path d="M 158.158062 273.312 
L 159.772286 273.312 
L 159.772286 99.11662 
L 158.158062 99.11662 
z
" clip-path="url(#pe24fc015ea)" style="fill: #1f77b4"/>
   </g>
   <g id="patch_64">
    <path d="M 159.772286 273.312 
L 161.38651 273.312 
L 161.38651 92.69138 
L 159.772286 92.69138 
z
" clip-path="url(#pe24fc015ea)" style="fill: #1f77b4"/>
   </g>
   <g id="patch_65">
    <path d="M 161.38651 273.312 
L 163.000735 273.312 
L 163.000735 86.266141 
L 161.38651 86.266141 
z
" clip-path="url(#pe24fc015ea)" style="fill: #1f77b4"/>
   </g>
   <g id="patch_66">
    <path d="M 163.000735 273.312 
L 164.614959 273.312 
L 164.614959 92.69138 
L 163.000735 92.69138 
z
" clip-path="url(#pe24fc015ea)" style="fill: #1f77b4"/>
   </g>
   <g id="patch_67">
    <path d="M 164.614959 273.312 
L 166.229183 273.312 
L 166.229183 71.273915 
L 164.614959 71.273915 
z
" clip-path="url(#pe24fc015ea)" style="fill: #1f77b4"/>
   </g>
   <g id="patch_68">
    <path d="M 166.229183 273.312 
L 167.843408 273.312 
L 167.843408 83.410479 
L 166.229183 83.410479 
z
" clip-path="url(#pe24fc015ea)" style="fill: #1f77b4"/>
   </g>
   <g id="patch_69">
    <path d="M 167.843408 273.312 
L 169.457632 273.312 
L 169.457632 63.420845 
L 167.843408 63.420845 
z
" clip-path="url(#pe24fc015ea)" style="fill: #1f77b4"/>
   </g>
   <g id="patch_70">
    <path d="M 169.457632 273.312 
L 171.071856 273.312 
L 171.071856 94.119211 
L 169.457632 94.119211 
z
" clip-path="url(#pe24fc015ea)" style="fill: #1f77b4"/>
   </g>
   <g id="patch_71">
    <path d="M 171.071856 273.312 
L 172.686081 273.312 
L 172.686081 79.840901 
L 171.071856 79.840901 
z
" clip-path="url(#pe24fc015ea)" style="fill: #1f77b4"/>
   </g>
   <g id="patch_72">
    <path d="M 172.686081 273.312 
L 174.300305 273.312 
L 174.300305 74.843493 
L 172.686081 74.843493 
z
" clip-path="url(#pe24fc015ea)" style="fill: #1f77b4"/>
   </g>
   <g id="patch_73">
    <path d="M 174.300305 273.312 
L 175.914529 273.312 
L 175.914529 66.276507 
L 174.300305 66.276507 
z
" clip-path="url(#pe24fc015ea)" style="fill: #1f77b4"/>
   </g>
   <g id="patch_74">
    <path d="M 175.914529 273.312 
L 177.528754 273.312 
L 177.528754 68.418254 
L 175.914529 68.418254 
z
" clip-path="url(#pe24fc015ea)" style="fill: #1f77b4"/>
   </g>
   <g id="patch_75">
    <path d="M 177.528754 273.312 
L 179.142978 273.312 
L 179.142978 53.426028 
L 177.528754 53.426028 
z
" clip-path="url(#pe24fc015ea)" style="fill: #1f77b4"/>
   </g>
   <g id="patch_76">
    <path d="M 179.142978 273.312 
L 180.757202 273.312 
L 180.757202 62.70693 
L 179.142978 62.70693 
z
" clip-path="url(#pe24fc015ea)" style="fill: #1f77b4"/>
   </g>
   <g id="patch_77">
    <path d="M 180.757202 273.312 
L 182.371427 273.312 
L 182.371427 48.42862 
L 180.757202 48.42862 
z
" clip-path="url(#pe24fc015ea)" style="fill: #1f77b4"/>
   </g>
   <g id="patch_78">
    <path d="M 182.371427 273.312 
L 183.985651 273.312 
L 183.985651 62.70693 
L 182.371427 62.70693 
z
" clip-path="url(#pe24fc015ea)" style="fill: #1f77b4"/>
   </g>
   <g id="patch_79">
    <path d="M 183.985651 273.312 
L 185.599875 273.312 
L 185.599875 52.712113 
L 183.985651 52.712113 
z
" clip-path="url(#pe24fc015ea)" style="fill: #1f77b4"/>
   </g>
   <g id="patch_80">
    <path d="M 185.599875 273.312 
L 187.2141 273.312 
L 187.2141 71.273915 
L 185.599875 71.273915 
z
" clip-path="url(#pe24fc015ea)" style="fill: #1f77b4"/>
   </g>
   <g id="patch_81">
    <path d="M 187.2141 273.312 
L 188.828324 273.312 
L 188.828324 62.70693 
L 187.2141 62.70693 
z
" clip-path="url(#pe24fc015ea)" style="fill: #1f77b4"/>
   </g>
   <g id="patch_82">
    <path d="M 188.828324 273.312 
L 190.442548 273.312 
L 190.442548 82.696563 
L 188.828324 82.696563 
z
" clip-path="url(#pe24fc015ea)" style="fill: #1f77b4"/>
   </g>
   <g id="patch_83">
    <path d="M 190.442548 273.312 
L 192.056773 273.312 
L 192.056773 81.268732 
L 190.442548 81.268732 
z
" clip-path="url(#pe24fc015ea)" style="fill: #1f77b4"/>
   </g>
   <g id="patch_84">
    <path d="M 192.056773 273.312 
L 193.670997 273.312 
L 193.670997 61.279099 
L 192.056773 61.279099 
z
" clip-path="url(#pe24fc015ea)" style="fill: #1f77b4"/>
   </g>
   <g id="patch_85">
    <path d="M 193.670997 273.312 
L 195.285221 273.312 
L 195.285221 49.856451 
L 193.670997 49.856451 
z
" clip-path="url(#pe24fc015ea)" style="fill: #1f77b4"/>
   </g>
   <g id="patch_86">
    <path d="M 195.285221 273.312 
L 196.899446 273.312 
L 196.899446 55.567775 
L 195.285221 55.567775 
z
" clip-path="url(#pe24fc015ea)" style="fill: #1f77b4"/>
   </g>
   <g id="patch_87">
    <path d="M 196.899446 273.312 
L 198.51367 273.312 
L 198.51367 44.859042 
L 196.899446 44.859042 
z
" clip-path="url(#pe24fc015ea)" style="fill: #1f77b4"/>
   </g>
   <g id="patch_88">
    <path d="M 198.51367 273.312 
L 200.127894 273.312 
L 200.127894 42.717296 
L 198.51367 42.717296 
z
" clip-path="url(#pe24fc015ea)" style="fill: #1f77b4"/>
   </g>
   <g id="patch_89">
    <path d="M 200.127894 273.312 
L 201.742119 273.312 
L 201.742119 79.840901 
L 200.127894 79.840901 
z
" clip-path="url(#pe24fc015ea)" style="fill: #1f77b4"/>
   </g>
   <g id="patch_90">
    <path d="M 201.742119 273.312 
L 203.356343 273.312 
L 203.356343 61.279099 
L 201.742119 61.279099 
z
" clip-path="url(#pe24fc015ea)" style="fill: #1f77b4"/>
   </g>
   <g id="patch_91">
    <path d="M 203.356343 273.312 
L 204.970568 273.312 
L 204.970568 19.872 
L 203.356343 19.872 
z
" clip-path="url(#pe24fc015ea)" style="fill: #1f77b4"/>
   </g>
   <g id="patch_92">
    <path d="M 204.970568 273.312 
L 206.584792 273.312 
L 206.584792 43.431211 
L 204.970568 43.431211 
z
" clip-path="url(#pe24fc015ea)" style="fill: #1f77b4"/>
   </g>
   <g id="patch_93">
    <path d="M 206.584792 273.312 
L 208.199016 273.312 
L 208.199016 49.856451 
L 206.584792 49.856451 
z
" clip-path="url(#pe24fc015ea)" style="fill: #1f77b4"/>
   </g>
   <g id="patch_94">
    <path d="M 208.199016 273.312 
L 209.813241 273.312 
L 209.813241 49.856451 
L 208.199016 49.856451 
z
" clip-path="url(#pe24fc015ea)" style="fill: #1f77b4"/>
   </g>
   <g id="patch_95">
    <path d="M 209.813241 273.312 
L 211.427465 273.312 
L 211.427465 65.562592 
L 209.813241 65.562592 
z
" clip-path="url(#pe24fc015ea)" style="fill: #1f77b4"/>
   </g>
   <g id="patch_96">
    <path d="M 211.427465 273.312 
L 213.041689 273.312 
L 213.041689 49.142535 
L 211.427465 49.142535 
z
" clip-path="url(#pe24fc015ea)" style="fill: #1f77b4"/>
   </g>
   <g id="patch_97">
    <path d="M 213.041689 273.312 
L 214.655914 273.312 
L 214.655914 42.00338 
L 213.041689 42.00338 
z
" clip-path="url(#pe24fc015ea)" style="fill: #1f77b4"/>
   </g>
   <g id="patch_98">
    <path d="M 214.655914 273.312 
L 216.270138 273.312 
L 216.270138 32.722479 
L 214.655914 32.722479 
z
" clip-path="url(#pe24fc015ea)" style="fill: #1f77b4"/>
   </g>
   <g id="patch_99">
    <path d="M 216.270138 273.312 
L 217.884362 273.312 
L 217.884362 37.719887 
L 216.270138 37.719887 
z
" clip-path="url(#pe24fc015ea)" style="fill: #1f77b4"/>
   </g>
   <g id="patch_100">
    <path d="M 217.884362 273.312 
L 219.498587 273.312 
L 219.498587 29.866817 
L 217.884362 29.866817 
z
" clip-path="url(#pe24fc015ea)" style="fill: #1f77b4"/>
   </g>
   <g id="patch_101">
    <path d="M 219.498587 273.312 
L 221.112811 273.312 
L 221.112811 89.835718 
L 219.498587 89.835718 
z
" clip-path="url(#pe24fc015ea)" style="fill: #1f77b4"/>
   </g>
   <g id="patch_102">
    <path d="M 221.112811 273.312 
L 222.727035 273.312 
L 222.727035 40.575549 
L 221.112811 40.575549 
z
" clip-path="url(#pe24fc015ea)" style="fill: #1f77b4"/>
   </g>
   <g id="patch_103">
    <path d="M 222.727035 273.312 
L 224.34126 273.312 
L 224.34126 49.856451 
L 222.727035 49.856451 
z
" clip-path="url(#pe24fc015ea)" style="fill: #1f77b4"/>
   </g>
   <g id="patch_104">
    <path d="M 224.34126 273.312 
L 225.955484 273.312 
L 225.955484 52.712113 
L 224.34126 52.712113 
z
" clip-path="url(#pe24fc015ea)" style="fill: #1f77b4"/>
   </g>
   <g id="patch_105">
    <path d="M 225.955484 273.312 
L 227.569708 273.312 
L 227.569708 40.575549 
L 225.955484 40.575549 
z
" clip-path="url(#pe24fc015ea)" style="fill: #1f77b4"/>
   </g>
   <g id="patch_106">
    <path d="M 227.569708 273.312 
L 229.183933 273.312 
L 229.183933 47.714704 
L 227.569708 47.714704 
z
" clip-path="url(#pe24fc015ea)" style="fill: #1f77b4"/>
   </g>
   <g id="patch_107">
    <path d="M 229.183933 273.312 
L 230.798157 273.312 
L 230.798157 54.853859 
L 229.183933 54.853859 
z
" clip-path="url(#pe24fc015ea)" style="fill: #1f77b4"/>
   </g>
   <g id="patch_108">
    <path d="M 230.798157 273.312 
L 232.412381 273.312 
L 232.412381 34.864225 
L 230.798157 34.864225 
z
" clip-path="url(#pe24fc015ea)" style="fill: #1f77b4"/>
   </g>
   <g id="patch_109">
    <path d="M 232.412381 273.312 
L 234.026606 273.312 
L 234.026606 68.418254 
L 232.412381 68.418254 
z
" clip-path="url(#pe24fc015ea)" style="fill: #1f77b4"/>
   </g>
   <g id="patch_110">
    <path d="M 234.026606 273.312 
L 235.64083 273.312 
L 235.64083 58.423437 
L 234.026606 58.423437 
z
" clip-path="url(#pe24fc015ea)" style="fill: #1f77b4"/>
   </g>
   <g id="patch_111">
    <path d="M 235.64083 273.312 
L 237.255054 273.312 
L 237.255054 51.998197 
L 235.64083 51.998197 
z
" clip-path="url(#pe24fc015ea)" style="fill: #1f77b4"/>
   </g>
   <g id="patch_112">
    <path d="M 237.255054 273.312 
L 238.869279 273.312 
L 238.869279 67.704338 
L 237.255054 67.704338 
z
" clip-path="url(#pe24fc015ea)" style="fill: #1f77b4"/>
   </g>
   <g id="patch_113">
    <path d="M 238.869279 273.312 
L 240.483503 273.312 
L 240.483503 55.567775 
L 238.869279 55.567775 
z
" clip-path="url(#pe24fc015ea)" style="fill: #1f77b4"/>
   </g>
   <g id="patch_114">
    <path d="M 240.483503 273.312 
L 242.097727 273.312 
L 242.097727 51.998197 
L 240.483503 51.998197 
z
" clip-path="url(#pe24fc015ea)" style="fill: #1f77b4"/>
   </g>
   <g id="patch_115">
    <path d="M 242.097727 273.312 
L 243.711952 273.312 
L 243.711952 46.286873 
L 242.097727 46.286873 
z
" clip-path="url(#pe24fc015ea)" style="fill: #1f77b4"/>
   </g>
   <g id="patch_116">
    <path d="M 243.711952 273.312 
L 245.326176 273.312 
L 245.326176 61.993014 
L 243.711952 61.993014 
z
" clip-path="url(#pe24fc015ea)" style="fill: #1f77b4"/>
   </g>
   <g id="patch_117">
    <path d="M 245.326176 273.312 
L 246.9404 273.312 
L 246.9404 79.840901 
L 245.326176 79.840901 
z
" clip-path="url(#pe24fc015ea)" style="fill: #1f77b4"/>
   </g>
   <g id="patch_118">
    <path d="M 246.9404 273.312 
L 248.554625 273.312 
L 248.554625 30.580732 
L 246.9404 30.580732 
z
" clip-path="url(#pe24fc015ea)" style="fill: #1f77b4"/>
   </g>
   <g id="patch_119">
    <path d="M 248.554625 273.312 
L 250.168849 273.312 
L 250.168849 44.145127 
L 248.554625 44.145127 
z
" clip-path="url(#pe24fc015ea)" style="fill: #1f77b4"/>
   </g>
   <g id="patch_120">
    <path d="M 250.168849 273.312 
L 251.783073 273.312 
L 251.783073 68.418254 
L 250.168849 68.418254 
z
" clip-path="url(#pe24fc015ea)" style="fill: #1f77b4"/>
   </g>
   <g id="patch_121">
    <path d="M 251.783073 273.312 
L 253.397298 273.312 
L 253.397298 37.719887 
L 251.783073 37.719887 
z
" clip-path="url(#pe24fc015ea)" style="fill: #1f77b4"/>
   </g>
   <g id="patch_122">
    <path d="M 253.397298 273.312 
L 255.011522 273.312 
L 255.011522 49.856451 
L 253.397298 49.856451 
z
" clip-path="url(#pe24fc015ea)" style="fill: #1f77b4"/>
   </g>
   <g id="patch_123">
    <path d="M 255.011522 273.312 
L 256.625746 273.312 
L 256.625746 74.843493 
L 255.011522 74.843493 
z
" clip-path="url(#pe24fc015ea)" style="fill: #1f77b4"/>
   </g>
   <g id="patch_124">
    <path d="M 256.625746 273.312 
L 258.239971 273.312 
L 258.239971 62.70693 
L 256.625746 62.70693 
z
" clip-path="url(#pe24fc015ea)" style="fill: #1f77b4"/>
   </g>
   <g id="patch_125">
    <path d="M 258.239971 273.312 
L 259.854195 273.312 
L 259.854195 71.987831 
L 258.239971 71.987831 
z
" clip-path="url(#pe24fc015ea)" style="fill: #1f77b4"/>
   </g>
   <g id="patch_126">
    <path d="M 259.854195 273.312 
L 261.468419 273.312 
L 261.468419 52.712113 
L 259.854195 52.712113 
z
" clip-path="url(#pe24fc015ea)" style="fill: #1f77b4"/>
   </g>
   <g id="patch_127">
    <path d="M 261.468419 273.312 
L 263.082644 273.312 
L 263.082644 56.28169 
L 261.468419 56.28169 
z
" clip-path="url(#pe24fc015ea)" style="fill: #1f77b4"/>
   </g>
   <g id="patch_128">
    <path d="M 263.082644 273.312 
L 264.696868 273.312 
L 264.696868 76.985239 
L 263.082644 76.985239 
z
" clip-path="url(#pe24fc015ea)" style="fill: #1f77b4"/>
   </g>
   <g id="patch_129">
    <path d="M 264.696868 273.312 
L 266.311092 273.312 
L 266.311092 69.132169 
L 264.696868 69.132169 
z
" clip-path="url(#pe24fc015ea)" style="fill: #1f77b4"/>
   </g>
   <g id="patch_130">
    <path d="M 266.311092 273.312 
L 267.925317 273.312 
L 267.925317 59.137352 
L 266.311092 59.137352 
z
" clip-path="url(#pe24fc015ea)" style="fill: #1f77b4"/>
   </g>
   <g id="patch_131">
    <path d="M 267.925317 273.312 
L 269.539541 273.312 
L 269.539541 82.696563 
L 267.925317 82.696563 
z
" clip-path="url(#pe24fc015ea)" style="fill: #1f77b4"/>
   </g>
   <g id="patch_132">
    <path d="M 269.539541 273.312 
L 271.153765 273.312 
L 271.153765 69.846085 
L 269.539541 69.846085 
z
" clip-path="url(#pe24fc015ea)" style="fill: #1f77b4"/>
   </g>
   <g id="patch_133">
    <path d="M 271.153765 273.312 
L 272.76799 273.312 
L 272.76799 67.704338 
L 271.153765 67.704338 
z
" clip-path="url(#pe24fc015ea)" style="fill: #1f77b4"/>
   </g>
   <g id="patch_134">
    <path d="M 272.76799 273.312 
L 274.382214 273.312 
L 274.382214 64.848676 
L 272.76799 64.848676 
z
" clip-path="url(#pe24fc015ea)" style="fill: #1f77b4"/>
   </g>
   <g id="patch_135">
    <path d="M 274.382214 273.312 
L 275.996438 273.312 
L 275.996438 84.124394 
L 274.382214 84.124394 
z
" clip-path="url(#pe24fc015ea)" style="fill: #1f77b4"/>
   </g>
   <g id="patch_136">
    <path d="M 275.996438 273.312 
L 277.610663 273.312 
L 277.610663 83.410479 
L 275.996438 83.410479 
z
" clip-path="url(#pe24fc015ea)" style="fill: #1f77b4"/>
   </g>
   <g id="patch_137">
    <path d="M 277.610663 273.312 
L 279.224887 273.312 
L 279.224887 96.260958 
L 277.610663 96.260958 
z
" clip-path="url(#pe24fc015ea)" style="fill: #1f77b4"/>
   </g>
   <g id="patch_138">
    <path d="M 279.224887 273.312 
L 280.839111 273.312 
L 280.839111 82.696563 
L 279.224887 82.696563 
z
" clip-path="url(#pe24fc015ea)" style="fill: #1f77b4"/>
   </g>
   <g id="patch_139">
    <path d="M 280.839111 273.312 
L 282.453336 273.312 
L 282.453336 83.410479 
L 280.839111 83.410479 
z
" clip-path="url(#pe24fc015ea)" style="fill: #1f77b4"/>
   </g>
   <g id="patch_140">
    <path d="M 282.453336 273.312 
L 284.06756 273.312 
L 284.06756 101.258366 
L 282.453336 101.258366 
z
" clip-path="url(#pe24fc015ea)" style="fill: #1f77b4"/>
   </g>
   <g id="patch_141">
    <path d="M 284.06756 273.312 
L 285.681784 273.312 
L 285.681784 77.699155 
L 284.06756 77.699155 
z
" clip-path="url(#pe24fc015ea)" style="fill: #1f77b4"/>
   </g>
   <g id="patch_142">
    <path d="M 285.681784 273.312 
L 287.296009 273.312 
L 287.296009 107.683606 
L 285.681784 107.683606 
z
" clip-path="url(#pe24fc015ea)" style="fill: #1f77b4"/>
   </g>
   <g id="patch_143">
    <path d="M 287.296009 273.312 
L 288.910233 273.312 
L 288.910233 85.552225 
L 287.296009 85.552225 
z
" clip-path="url(#pe24fc015ea)" style="fill: #1f77b4"/>
   </g>
   <g id="patch_144">
    <path d="M 288.910233 273.312 
L 290.524457 273.312 
L 290.524457 96.974873 
L 288.910233 96.974873 
z
" clip-path="url(#pe24fc015ea)" style="fill: #1f77b4"/>
   </g>
   <g id="patch_145">
    <path d="M 290.524457 273.312 
L 292.138682 273.312 
L 292.138682 119.820169 
L 290.524457 119.820169 
z
" clip-path="url(#pe24fc015ea)" style="fill: #1f77b4"/>
   </g>
   <g id="patch_146">
    <path d="M 292.138682 273.312 
L 293.752906 273.312 
L 293.752906 104.114028 
L 292.138682 104.114028 
z
" clip-path="url(#pe24fc015ea)" style="fill: #1f77b4"/>
   </g>
   <g id="patch_147">
    <path d="M 293.752906 273.312 
L 295.36713 273.312 
L 295.36713 101.258366 
L 293.752906 101.258366 
z
" clip-path="url(#pe24fc015ea)" style="fill: #1f77b4"/>
   </g>
   <g id="patch_148">
    <path d="M 295.36713 273.312 
L 296.981355 273.312 
L 296.981355 109.111437 
L 295.36713 109.111437 
z
" clip-path="url(#pe24fc015ea)" style="fill: #1f77b4"/>
   </g>
   <g id="patch_149">
    <path d="M 296.981355 273.312 
L 298.595579 273.312 
L 298.595579 111.967099 
L 296.981355 111.967099 
z
" clip-path="url(#pe24fc015ea)" style="fill: #1f77b4"/>
   </g>
   <g id="patch_150">
    <path d="M 298.595579 273.312 
L 300.209804 273.312 
L 300.209804 109.111437 
L 298.595579 109.111437 
z
" clip-path="url(#pe24fc015ea)" style="fill: #1f77b4"/>
   </g>
   <g id="patch_151">
    <path d="M 300.209804 273.312 
L 301.824028 273.312 
L 301.824028 105.541859 
L 300.209804 105.541859 
z
" clip-path="url(#pe24fc015ea)" style="fill: #1f77b4"/>
   </g>
   <g id="patch_152">
    <path d="M 301.824028 273.312 
L 303.438252 273.312 
L 303.438252 117.678423 
L 301.824028 117.678423 
z
" clip-path="url(#pe24fc015ea)" style="fill: #1f77b4"/>
   </g>
   <g id="patch_153">
    <path d="M 303.438252 273.312 
L 305.052477 273.312 
L 305.052477 125.531493 
L 303.438252 125.531493 
z
" clip-path="url(#pe24fc015ea)" style="fill: #1f77b4"/>
   </g>
   <g id="patch_154">
    <path d="M 305.052477 273.312 
L 306.666701 273.312 
L 306.666701 113.39493 
L 305.052477 113.39493 
z
" clip-path="url(#pe24fc015ea)" style="fill: #1f77b4"/>
   </g>
   <g id="patch_155">
    <path d="M 306.666701 273.312 
L 308.280925 273.312 
L 308.280925 139.095887 
L 306.666701 139.095887 
z
" clip-path="url(#pe24fc015ea)" style="fill: #1f77b4"/>
   </g>
   <g id="patch_156">
    <path d="M 308.280925 273.312 
L 309.89515 273.312 
L 309.89515 121.961915 
L 308.280925 121.961915 
z
" clip-path="url(#pe24fc015ea)" style="fill: #1f77b4"/>
   </g>
   <g id="patch_157">
    <path d="M 309.89515 273.312 
L 311.509374 273.312 
L 311.509374 129.814986 
L 309.89515 129.814986 
z
" clip-path="url(#pe24fc015ea)" style="fill: #1f77b4"/>
   </g>
   <g id="patch_158">
    <path d="M 311.509374 273.312 
L 313.123598 273.312 
L 313.123598 121.961915 
L 311.509374 121.961915 
z
" clip-path="url(#pe24fc015ea)" style="fill: #1f77b4"/>
   </g>
   <g id="patch_159">
    <path d="M 313.123598 273.312 
L 314.737823 273.312 
L 314.737823 114.822761 
L 313.123598 114.822761 
z
" clip-path="url(#pe24fc015ea)" style="fill: #1f77b4"/>
   </g>
   <g id="patch_160">
    <path d="M 314.737823 273.312 
L 316.352047 273.312 
L 316.352047 111.967099 
L 314.737823 111.967099 
z
" clip-path="url(#pe24fc015ea)" style="fill: #1f77b4"/>
   </g>
   <g id="patch_161">
    <path d="M 316.352047 273.312 
L 317.966271 273.312 
L 317.966271 132.670648 
L 316.352047 132.670648 
z
" clip-path="url(#pe24fc015ea)" style="fill: #1f77b4"/>
   </g>
   <g id="patch_162">
    <path d="M 317.966271 273.312 
L 319.580496 273.312 
L 319.580496 146.235042 
L 317.966271 146.235042 
z
" clip-path="url(#pe24fc015ea)" style="fill: #1f77b4"/>
   </g>
   <g id="patch_163">
    <path d="M 319.580496 273.312 
L 321.19472 273.312 
L 321.19472 151.946366 
L 319.580496 151.946366 
z
" clip-path="url(#pe24fc015ea)" style="fill: #1f77b4"/>
   </g>
   <g id="patch_164">
    <path d="M 321.19472 273.312 
L 322.808944 273.312 
L 322.808944 137.668056 
L 321.19472 137.668056 
z
" clip-path="url(#pe24fc015ea)" style="fill: #1f77b4"/>
   </g>
   <g id="patch_165">
    <path d="M 322.808944 273.312 
L 324.423169 273.312 
L 324.423169 167.652507 
L 322.808944 167.652507 
z
" clip-path="url(#pe24fc015ea)" style="fill: #1f77b4"/>
   </g>
   <g id="patch_166">
    <path d="M 324.423169 273.312 
L 326.037393 273.312 
L 326.037393 154.802028 
L 324.423169 154.802028 
z
" clip-path="url(#pe24fc015ea)" style="fill: #1f77b4"/>
   </g>
   <g id="patch_167">
    <path d="M 326.037393 273.312 
L 327.651617 273.312 
L 327.651617 138.381972 
L 326.037393 138.381972 
z
" clip-path="url(#pe24fc015ea)" style="fill: #1f77b4"/>
   </g>
   <g id="patch_168">
    <path d="M 327.651617 273.312 
L 329.265842 273.312 
L 329.265842 155.515944 
L 327.651617 155.515944 
z
" clip-path="url(#pe24fc015ea)" style="fill: #1f77b4"/>
   </g>
   <g id="patch_169">
    <path d="M 329.265842 273.312 
L 330.880066 273.312 
L 330.880066 167.652507 
L 329.265842 167.652507 
z
" clip-path="url(#pe24fc015ea)" style="fill: #1f77b4"/>
   </g>
   <g id="patch_170">
    <path d="M 330.880066 273.312 
L 332.49429 273.312 
L 332.49429 146.235042 
L 330.880066 146.235042 
z
" clip-path="url(#pe24fc015ea)" style="fill: #1f77b4"/>
   </g>
   <g id="patch_171">
    <path d="M 332.49429 273.312 
L 334.108515 273.312 
L 334.108515 174.791662 
L 332.49429 174.791662 
z
" clip-path="url(#pe24fc015ea)" style="fill: #1f77b4"/>
   </g>
   <g id="patch_172">
    <path d="M 334.108515 273.312 
L 335.722739 273.312 
L 335.722739 174.791662 
L 334.108515 174.791662 
z
" clip-path="url(#pe24fc015ea)" style="fill: #1f77b4"/>
   </g>
   <g id="patch_173">
    <path d="M 335.722739 273.312 
L 337.336963 273.312 
L 337.336963 171.936 
L 335.722739 171.936 
z
" clip-path="url(#pe24fc015ea)" style="fill: #1f77b4"/>
   </g>
   <g id="patch_174">
    <path d="M 337.336963 273.312 
L 338.951188 273.312 
L 338.951188 185.500394 
L 337.336963 185.500394 
z
" clip-path="url(#pe24fc015ea)" style="fill: #1f77b4"/>
   </g>
   <g id="patch_175">
    <path d="M 338.951188 273.312 
L 340.565412 273.312 
L 340.565412 181.930817 
L 338.951188 181.930817 
z
" clip-path="url(#pe24fc015ea)" style="fill: #1f77b4"/>
   </g>
   <g id="patch_176">
    <path d="M 340.565412 273.312 
L 342.179636 273.312 
L 342.179636 190.497803 
L 340.565412 190.497803 
z
" clip-path="url(#pe24fc015ea)" style="fill: #1f77b4"/>
   </g>
   <g id="patch_177">
    <path d="M 342.179636 273.312 
L 343.793861 273.312 
L 343.793861 189.069972 
L 342.179636 189.069972 
z
" clip-path="url(#pe24fc015ea)" style="fill: #1f77b4"/>
   </g>
   <g id="patch_178">
    <path d="M 343.793861 273.312 
L 345.408085 273.312 
L 345.408085 197.636958 
L 343.793861 197.636958 
z
" clip-path="url(#pe24fc015ea)" style="fill: #1f77b4"/>
   </g>
   <g id="patch_179">
    <path d="M 345.408085 273.312 
L 347.022309 273.312 
L 347.022309 175.505577 
L 345.408085 175.505577 
z
" clip-path="url(#pe24fc015ea)" style="fill: #1f77b4"/>
   </g>
   <g id="patch_180">
    <path d="M 347.022309 273.312 
L 348.636534 273.312 
L 348.636534 196.209127 
L 347.022309 196.209127 
z
" clip-path="url(#pe24fc015ea)" style="fill: #1f77b4"/>
   </g>
   <g id="patch_181">
    <path d="M 348.636534 273.312 
L 350.250758 273.312 
L 350.250758 192.639549 
L 348.636534 192.639549 
z
" clip-path="url(#pe24fc015ea)" style="fill: #1f77b4"/>
   </g>
   <g id="patch_182">
    <path d="M 350.250758 273.312 
L 351.864982 273.312 
L 351.864982 196.209127 
L 350.250758 196.209127 
z
" clip-path="url(#pe24fc015ea)" style="fill: #1f77b4"/>
   </g>
   <g id="patch_183">
    <path d="M 351.864982 273.312 
L 353.479207 273.312 
L 353.479207 214.77093 
L 351.864982 214.77093 
z
" clip-path="url(#pe24fc015ea)" style="fill: #1f77b4"/>
   </g>
   <g id="patch_184">
    <path d="M 353.479207 273.312 
L 355.093431 273.312 
L 355.093431 204.776113 
L 353.479207 204.776113 
z
" clip-path="url(#pe24fc015ea)" style="fill: #1f77b4"/>
   </g>
   <g id="patch_185">
    <path d="M 355.093431 273.312 
L 356.707655 273.312 
L 356.707655 208.34569 
L 355.093431 208.34569 
z
" clip-path="url(#pe24fc015ea)" style="fill: #1f77b4"/>
   </g>
   <g id="patch_186">
    <path d="M 356.707655 273.312 
L 358.32188 273.312 
L 358.32188 217.626592 
L 356.707655 217.626592 
z
" clip-path="url(#pe24fc015ea)" style="fill: #1f77b4"/>
   </g>
   <g id="patch_187">
    <path d="M 358.32188 273.312 
L 359.936104 273.312 
L 359.936104 222.624 
L 358.32188 222.624 
z
" clip-path="url(#pe24fc015ea)" style="fill: #1f77b4"/>
   </g>
   <g id="patch_188">
    <path d="M 359.936104 273.312 
L 361.550328 273.312 
L 361.550328 233.332732 
L 359.936104 233.332732 
z
" clip-path="url(#pe24fc015ea)" style="fill: #1f77b4"/>
   </g>
   <g id="patch_189">
    <path d="M 361.550328 273.312 
L 363.164553 273.312 
L 363.164553 226.907493 
L 361.550328 226.907493 
z
" clip-path="url(#pe24fc015ea)" style="fill: #1f77b4"/>
   </g>
   <g id="patch_190">
    <path d="M 363.164553 273.312 
L 364.778777 273.312 
L 364.778777 222.624 
L 363.164553 222.624 
z
" clip-path="url(#pe24fc015ea)" style="fill: #1f77b4"/>
   </g>
   <g id="patch_191">
    <path d="M 364.778777 273.312 
L 366.393001 273.312 
L 366.393001 236.188394 
L 364.778777 236.188394 
z
" clip-path="url(#pe24fc015ea)" style="fill: #1f77b4"/>
   </g>
   <g id="patch_192">
    <path d="M 366.393001 273.312 
L 368.007226 273.312 
L 368.007226 248.324958 
L 366.393001 248.324958 
z
" clip-path="url(#pe24fc015ea)" style="fill: #1f77b4"/>
   </g>
   <g id="patch_193">
    <path d="M 368.007226 273.312 
L 369.62145 273.312 
L 369.62145 244.75538 
L 368.007226 244.75538 
z
" clip-path="url(#pe24fc015ea)" style="fill: #1f77b4"/>
   </g>
   <g id="patch_194">
    <path d="M 369.62145 273.312 
L 371.235674 273.312 
L 371.235674 237.616225 
L 369.62145 237.616225 
z
" clip-path="url(#pe24fc015ea)" style="fill: #1f77b4"/>
   </g>
   <g id="patch_195">
    <path d="M 371.235674 273.312 
L 372.849899 273.312 
L 372.849899 254.036282 
L 371.235674 254.036282 
z
" clip-path="url(#pe24fc015ea)" style="fill: #1f77b4"/>
   </g>
   <g id="patch_196">
    <path d="M 372.849899 273.312 
L 374.464123 273.312 
L 374.464123 251.894535 
L 372.849899 251.894535 
z
" clip-path="url(#pe24fc015ea)" style="fill: #1f77b4"/>
   </g>
   <g id="patch_197">
    <path d="M 374.464123 273.312 
L 376.078347 273.312 
L 376.078347 247.611042 
L 374.464123 247.611042 
z
" clip-path="url(#pe24fc015ea)" style="fill: #1f77b4"/>
   </g>
   <g id="patch_198">
    <path d="M 376.078347 273.312 
L 377.692572 273.312 
L 377.692572 256.891944 
L 376.078347 256.891944 
z
" clip-path="url(#pe24fc015ea)" style="fill: #1f77b4"/>
   </g>
   <g id="patch_199">
    <path d="M 377.692572 273.312 
L 379.306796 273.312 
L 379.306796 264.031099 
L 377.692572 264.031099 
z
" clip-path="url(#pe24fc015ea)" style="fill: #1f77b4"/>
   </g>
   <g id="patch_200">
    <path d="M 379.306796 273.312 
L 380.92102 273.312 
L 380.92102 262.603268 
L 379.306796 262.603268 
z
" clip-path="url(#pe24fc015ea)" style="fill: #1f77b4"/>
   </g>
   <g id="patch_201">
    <path d="M 380.92102 273.312 
L 382.535245 273.312 
L 382.535245 263.317183 
L 380.92102 263.317183 
z
" clip-path="url(#pe24fc015ea)" style="fill: #1f77b4"/>
   </g>
   <g id="patch_202">
    <path d="M 382.535245 273.312 
L 384.149469 273.312 
L 384.149469 268.314592 
L 382.535245 268.314592 
z
" clip-path="url(#pe24fc015ea)" style="fill: #1f77b4"/>
   </g>
   <g id="matplotlib.axis_1">
    <g id="xtick_1">
     <g id="line2d_1">
      <defs>
       <path id="mfb59f5f692" d="M 0 0 
L 0 3.5 
" style="stroke: #000000; stroke-width: 0.8"/>
      </defs>
      <g>
       <use xlink:href="#mfb59f5f692" x="60.013977" y="273.312" style="stroke: #000000; stroke-width: 0.8"/>
      </g>
     </g>
     <g id="text_1">
      <!-- 0.0 -->
      <g transform="translate(52.062415 287.910437)scale(0.1 -0.1)">
       <defs>
        <path id="DejaVuSans-30" d="M 2034 4250 
Q 1547 4250 1301 3770 
Q 1056 3291 1056 2328 
Q 1056 1369 1301 889 
Q 1547 409 2034 409 
Q 2525 409 2770 889 
Q 3016 1369 3016 2328 
Q 3016 3291 2770 3770 
Q 2525 4250 2034 4250 
z
M 2034 4750 
Q 2819 4750 3233 4129 
Q 3647 3509 3647 2328 
Q 3647 1150 3233 529 
Q 2819 -91 2034 -91 
Q 1250 -91 836 529 
Q 422 1150 422 2328 
Q 422 3509 836 4129 
Q 1250 4750 2034 4750 
z
" transform="scale(0.015625)"/>
        <path id="DejaVuSans-2e" d="M 684 794 
L 1344 794 
L 1344 0 
L 684 0 
L 684 794 
z
" transform="scale(0.015625)"/>
       </defs>
       <use xlink:href="#DejaVuSans-30"/>
       <use xlink:href="#DejaVuSans-2e" x="63.623047"/>
       <use xlink:href="#DejaVuSans-30" x="95.410156"/>
      </g>
     </g>
    </g>
    <g id="xtick_2">
     <g id="line2d_2">
      <g>
       <use xlink:href="#mfb59f5f692" x="101.350278" y="273.312" style="stroke: #000000; stroke-width: 0.8"/>
      </g>
     </g>
     <g id="text_2">
      <!-- 0.2 -->
      <g transform="translate(93.398715 287.910437)scale(0.1 -0.1)">
       <defs>
        <path id="DejaVuSans-32" d="M 1228 531 
L 3431 531 
L 3431 0 
L 469 0 
L 469 531 
Q 828 903 1448 1529 
Q 2069 2156 2228 2338 
Q 2531 2678 2651 2914 
Q 2772 3150 2772 3378 
Q 2772 3750 2511 3984 
Q 2250 4219 1831 4219 
Q 1534 4219 1204 4116 
Q 875 4013 500 3803 
L 500 4441 
Q 881 4594 1212 4672 
Q 1544 4750 1819 4750 
Q 2544 4750 2975 4387 
Q 3406 4025 3406 3419 
Q 3406 3131 3298 2873 
Q 3191 2616 2906 2266 
Q 2828 2175 2409 1742 
Q 1991 1309 1228 531 
z
" transform="scale(0.015625)"/>
       </defs>
       <use xlink:href="#DejaVuSans-30"/>
       <use xlink:href="#DejaVuSans-2e" x="63.623047"/>
       <use xlink:href="#DejaVuSans-32" x="95.410156"/>
      </g>
     </g>
    </g>
    <g id="xtick_3">
     <g id="line2d_3">
      <g>
       <use xlink:href="#mfb59f5f692" x="142.686578" y="273.312" style="stroke: #000000; stroke-width: 0.8"/>
      </g>
     </g>
     <g id="text_3">
      <!-- 0.4 -->
      <g transform="translate(134.735016 287.910437)scale(0.1 -0.1)">
       <defs>
        <path id="DejaVuSans-34" d="M 2419 4116 
L 825 1625 
L 2419 1625 
L 2419 4116 
z
M 2253 4666 
L 3047 4666 
L 3047 1625 
L 3713 1625 
L 3713 1100 
L 3047 1100 
L 3047 0 
L 2419 0 
L 2419 1100 
L 313 1100 
L 313 1709 
L 2253 4666 
z
" transform="scale(0.015625)"/>
       </defs>
       <use xlink:href="#DejaVuSans-30"/>
       <use xlink:href="#DejaVuSans-2e" x="63.623047"/>
       <use xlink:href="#DejaVuSans-34" x="95.410156"/>
      </g>
     </g>
    </g>
    <g id="xtick_4">
     <g id="line2d_4">
      <g>
       <use xlink:href="#mfb59f5f692" x="184.022879" y="273.312" style="stroke: #000000; stroke-width: 0.8"/>
      </g>
     </g>
     <g id="text_4">
      <!-- 0.6 -->
      <g transform="translate(176.071316 287.910437)scale(0.1 -0.1)">
       <defs>
        <path id="DejaVuSans-36" d="M 2113 2584 
Q 1688 2584 1439 2293 
Q 1191 2003 1191 1497 
Q 1191 994 1439 701 
Q 1688 409 2113 409 
Q 2538 409 2786 701 
Q 3034 994 3034 1497 
Q 3034 2003 2786 2293 
Q 2538 2584 2113 2584 
z
M 3366 4563 
L 3366 3988 
Q 3128 4100 2886 4159 
Q 2644 4219 2406 4219 
Q 1781 4219 1451 3797 
Q 1122 3375 1075 2522 
Q 1259 2794 1537 2939 
Q 1816 3084 2150 3084 
Q 2853 3084 3261 2657 
Q 3669 2231 3669 1497 
Q 3669 778 3244 343 
Q 2819 -91 2113 -91 
Q 1303 -91 875 529 
Q 447 1150 447 2328 
Q 447 3434 972 4092 
Q 1497 4750 2381 4750 
Q 2619 4750 2861 4703 
Q 3103 4656 3366 4563 
z
" transform="scale(0.015625)"/>
       </defs>
       <use xlink:href="#DejaVuSans-30"/>
       <use xlink:href="#DejaVuSans-2e" x="63.623047"/>
       <use xlink:href="#DejaVuSans-36" x="95.410156"/>
      </g>
     </g>
    </g>
    <g id="xtick_5">
     <g id="line2d_5">
      <g>
       <use xlink:href="#mfb59f5f692" x="225.35918" y="273.312" style="stroke: #000000; stroke-width: 0.8"/>
      </g>
     </g>
     <g id="text_5">
      <!-- 0.8 -->
      <g transform="translate(217.407617 287.910437)scale(0.1 -0.1)">
       <defs>
        <path id="DejaVuSans-38" d="M 2034 2216 
Q 1584 2216 1326 1975 
Q 1069 1734 1069 1313 
Q 1069 891 1326 650 
Q 1584 409 2034 409 
Q 2484 409 2743 651 
Q 3003 894 3003 1313 
Q 3003 1734 2745 1975 
Q 2488 2216 2034 2216 
z
M 1403 2484 
Q 997 2584 770 2862 
Q 544 3141 544 3541 
Q 544 4100 942 4425 
Q 1341 4750 2034 4750 
Q 2731 4750 3128 4425 
Q 3525 4100 3525 3541 
Q 3525 3141 3298 2862 
Q 3072 2584 2669 2484 
Q 3125 2378 3379 2068 
Q 3634 1759 3634 1313 
Q 3634 634 3220 271 
Q 2806 -91 2034 -91 
Q 1263 -91 848 271 
Q 434 634 434 1313 
Q 434 1759 690 2068 
Q 947 2378 1403 2484 
z
M 1172 3481 
Q 1172 3119 1398 2916 
Q 1625 2713 2034 2713 
Q 2441 2713 2670 2916 
Q 2900 3119 2900 3481 
Q 2900 3844 2670 4047 
Q 2441 4250 2034 4250 
Q 1625 4250 1398 4047 
Q 1172 3844 1172 3481 
z
" transform="scale(0.015625)"/>
       </defs>
       <use xlink:href="#DejaVuSans-30"/>
       <use xlink:href="#DejaVuSans-2e" x="63.623047"/>
       <use xlink:href="#DejaVuSans-38" x="95.410156"/>
      </g>
     </g>
    </g>
    <g id="xtick_6">
     <g id="line2d_6">
      <g>
       <use xlink:href="#mfb59f5f692" x="266.69548" y="273.312" style="stroke: #000000; stroke-width: 0.8"/>
      </g>
     </g>
     <g id="text_6">
      <!-- 1.0 -->
      <g transform="translate(258.743918 287.910437)scale(0.1 -0.1)">
       <defs>
        <path id="DejaVuSans-31" d="M 794 531 
L 1825 531 
L 1825 4091 
L 703 3866 
L 703 4441 
L 1819 4666 
L 2450 4666 
L 2450 531 
L 3481 531 
L 3481 0 
L 794 0 
L 794 531 
z
" transform="scale(0.015625)"/>
       </defs>
       <use xlink:href="#DejaVuSans-31"/>
       <use xlink:href="#DejaVuSans-2e" x="63.623047"/>
       <use xlink:href="#DejaVuSans-30" x="95.410156"/>
      </g>
     </g>
    </g>
    <g id="xtick_7">
     <g id="line2d_7">
      <g>
       <use xlink:href="#mfb59f5f692" x="308.031781" y="273.312" style="stroke: #000000; stroke-width: 0.8"/>
      </g>
     </g>
     <g id="text_7">
      <!-- 1.2 -->
      <g transform="translate(300.080218 287.910437)scale(0.1 -0.1)">
       <use xlink:href="#DejaVuSans-31"/>
       <use xlink:href="#DejaVuSans-2e" x="63.623047"/>
       <use xlink:href="#DejaVuSans-32" x="95.410156"/>
      </g>
     </g>
    </g>
    <g id="xtick_8">
     <g id="line2d_8">
      <g>
       <use xlink:href="#mfb59f5f692" x="349.368081" y="273.312" style="stroke: #000000; stroke-width: 0.8"/>
      </g>
     </g>
     <g id="text_8">
      <!-- 1.4 -->
      <g transform="translate(341.416519 287.910437)scale(0.1 -0.1)">
       <use xlink:href="#DejaVuSans-31"/>
       <use xlink:href="#DejaVuSans-2e" x="63.623047"/>
       <use xlink:href="#DejaVuSans-34" x="95.410156"/>
      </g>
     </g>
    </g>
    <g id="xtick_9">
     <g id="line2d_9">
      <g>
       <use xlink:href="#mfb59f5f692" x="390.704382" y="273.312" style="stroke: #000000; stroke-width: 0.8"/>
      </g>
     </g>
     <g id="text_9">
      <!-- 1.6 -->
      <g transform="translate(382.752819 287.910437)scale(0.1 -0.1)">
       <use xlink:href="#DejaVuSans-31"/>
       <use xlink:href="#DejaVuSans-2e" x="63.623047"/>
       <use xlink:href="#DejaVuSans-36" x="95.410156"/>
      </g>
     </g>
    </g>
    <g id="text_10">
     <!-- Angle with normal (rad) -->
     <g transform="translate(163.023281 301.588562)scale(0.1 -0.1)">
      <defs>
       <path id="DejaVuSans-41" d="M 2188 4044 
L 1331 1722 
L 3047 1722 
L 2188 4044 
z
M 1831 4666 
L 2547 4666 
L 4325 0 
L 3669 0 
L 3244 1197 
L 1141 1197 
L 716 0 
L 50 0 
L 1831 4666 
z
" transform="scale(0.015625)"/>
       <path id="DejaVuSans-6e" d="M 3513 2113 
L 3513 0 
L 2938 0 
L 2938 2094 
Q 2938 2591 2744 2837 
Q 2550 3084 2163 3084 
Q 1697 3084 1428 2787 
Q 1159 2491 1159 1978 
L 1159 0 
L 581 0 
L 581 3500 
L 1159 3500 
L 1159 2956 
Q 1366 3272 1645 3428 
Q 1925 3584 2291 3584 
Q 2894 3584 3203 3211 
Q 3513 2838 3513 2113 
z
" transform="scale(0.015625)"/>
       <path id="DejaVuSans-67" d="M 2906 1791 
Q 2906 2416 2648 2759 
Q 2391 3103 1925 3103 
Q 1463 3103 1205 2759 
Q 947 2416 947 1791 
Q 947 1169 1205 825 
Q 1463 481 1925 481 
Q 2391 481 2648 825 
Q 2906 1169 2906 1791 
z
M 3481 434 
Q 3481 -459 3084 -895 
Q 2688 -1331 1869 -1331 
Q 1566 -1331 1297 -1286 
Q 1028 -1241 775 -1147 
L 775 -588 
Q 1028 -725 1275 -790 
Q 1522 -856 1778 -856 
Q 2344 -856 2625 -561 
Q 2906 -266 2906 331 
L 2906 616 
Q 2728 306 2450 153 
Q 2172 0 1784 0 
Q 1141 0 747 490 
Q 353 981 353 1791 
Q 353 2603 747 3093 
Q 1141 3584 1784 3584 
Q 2172 3584 2450 3431 
Q 2728 3278 2906 2969 
L 2906 3500 
L 3481 3500 
L 3481 434 
z
" transform="scale(0.015625)"/>
       <path id="DejaVuSans-6c" d="M 603 4863 
L 1178 4863 
L 1178 0 
L 603 0 
L 603 4863 
z
" transform="scale(0.015625)"/>
       <path id="DejaVuSans-65" d="M 3597 1894 
L 3597 1613 
L 953 1613 
Q 991 1019 1311 708 
Q 1631 397 2203 397 
Q 2534 397 2845 478 
Q 3156 559 3463 722 
L 3463 178 
Q 3153 47 2828 -22 
Q 2503 -91 2169 -91 
Q 1331 -91 842 396 
Q 353 884 353 1716 
Q 353 2575 817 3079 
Q 1281 3584 2069 3584 
Q 2775 3584 3186 3129 
Q 3597 2675 3597 1894 
z
M 3022 2063 
Q 3016 2534 2758 2815 
Q 2500 3097 2075 3097 
Q 1594 3097 1305 2825 
Q 1016 2553 972 2059 
L 3022 2063 
z
" transform="scale(0.015625)"/>
       <path id="DejaVuSans-20" transform="scale(0.015625)"/>
       <path id="DejaVuSans-77" d="M 269 3500 
L 844 3500 
L 1563 769 
L 2278 3500 
L 2956 3500 
L 3675 769 
L 4391 3500 
L 4966 3500 
L 4050 0 
L 3372 0 
L 2619 2869 
L 1863 0 
L 1184 0 
L 269 3500 
z
" transform="scale(0.015625)"/>
       <path id="DejaVuSans-69" d="M 603 3500 
L 1178 3500 
L 1178 0 
L 603 0 
L 603 3500 
z
M 603 4863 
L 1178 4863 
L 1178 4134 
L 603 4134 
L 603 4863 
z
" transform="scale(0.015625)"/>
       <path id="DejaVuSans-74" d="M 1172 4494 
L 1172 3500 
L 2356 3500 
L 2356 3053 
L 1172 3053 
L 1172 1153 
Q 1172 725 1289 603 
Q 1406 481 1766 481 
L 2356 481 
L 2356 0 
L 1766 0 
Q 1100 0 847 248 
Q 594 497 594 1153 
L 594 3053 
L 172 3053 
L 172 3500 
L 594 3500 
L 594 4494 
L 1172 4494 
z
" transform="scale(0.015625)"/>
       <path id="DejaVuSans-68" d="M 3513 2113 
L 3513 0 
L 2938 0 
L 2938 2094 
Q 2938 2591 2744 2837 
Q 2550 3084 2163 3084 
Q 1697 3084 1428 2787 
Q 1159 2491 1159 1978 
L 1159 0 
L 581 0 
L 581 4863 
L 1159 4863 
L 1159 2956 
Q 1366 3272 1645 3428 
Q 1925 3584 2291 3584 
Q 2894 3584 3203 3211 
Q 3513 2838 3513 2113 
z
" transform="scale(0.015625)"/>
       <path id="DejaVuSans-6f" d="M 1959 3097 
Q 1497 3097 1228 2736 
Q 959 2375 959 1747 
Q 959 1119 1226 758 
Q 1494 397 1959 397 
Q 2419 397 2687 759 
Q 2956 1122 2956 1747 
Q 2956 2369 2687 2733 
Q 2419 3097 1959 3097 
z
M 1959 3584 
Q 2709 3584 3137 3096 
Q 3566 2609 3566 1747 
Q 3566 888 3137 398 
Q 2709 -91 1959 -91 
Q 1206 -91 779 398 
Q 353 888 353 1747 
Q 353 2609 779 3096 
Q 1206 3584 1959 3584 
z
" transform="scale(0.015625)"/>
       <path id="DejaVuSans-72" d="M 2631 2963 
Q 2534 3019 2420 3045 
Q 2306 3072 2169 3072 
Q 1681 3072 1420 2755 
Q 1159 2438 1159 1844 
L 1159 0 
L 581 0 
L 581 3500 
L 1159 3500 
L 1159 2956 
Q 1341 3275 1631 3429 
Q 1922 3584 2338 3584 
Q 2397 3584 2469 3576 
Q 2541 3569 2628 3553 
L 2631 2963 
z
" transform="scale(0.015625)"/>
       <path id="DejaVuSans-6d" d="M 3328 2828 
Q 3544 3216 3844 3400 
Q 4144 3584 4550 3584 
Q 5097 3584 5394 3201 
Q 5691 2819 5691 2113 
L 5691 0 
L 5113 0 
L 5113 2094 
Q 5113 2597 4934 2840 
Q 4756 3084 4391 3084 
Q 3944 3084 3684 2787 
Q 3425 2491 3425 1978 
L 3425 0 
L 2847 0 
L 2847 2094 
Q 2847 2600 2669 2842 
Q 2491 3084 2119 3084 
Q 1678 3084 1418 2786 
Q 1159 2488 1159 1978 
L 1159 0 
L 581 0 
L 581 3500 
L 1159 3500 
L 1159 2956 
Q 1356 3278 1631 3431 
Q 1906 3584 2284 3584 
Q 2666 3584 2933 3390 
Q 3200 3197 3328 2828 
z
" transform="scale(0.015625)"/>
       <path id="DejaVuSans-61" d="M 2194 1759 
Q 1497 1759 1228 1600 
Q 959 1441 959 1056 
Q 959 750 1161 570 
Q 1363 391 1709 391 
Q 2188 391 2477 730 
Q 2766 1069 2766 1631 
L 2766 1759 
L 2194 1759 
z
M 3341 1997 
L 3341 0 
L 2766 0 
L 2766 531 
Q 2569 213 2275 61 
Q 1981 -91 1556 -91 
Q 1019 -91 701 211 
Q 384 513 384 1019 
Q 384 1609 779 1909 
Q 1175 2209 1959 2209 
L 2766 2209 
L 2766 2266 
Q 2766 2663 2505 2880 
Q 2244 3097 1772 3097 
Q 1472 3097 1187 3025 
Q 903 2953 641 2809 
L 641 3341 
Q 956 3463 1253 3523 
Q 1550 3584 1831 3584 
Q 2591 3584 2966 3190 
Q 3341 2797 3341 1997 
z
" transform="scale(0.015625)"/>
       <path id="DejaVuSans-28" d="M 1984 4856 
Q 1566 4138 1362 3434 
Q 1159 2731 1159 2009 
Q 1159 1288 1364 580 
Q 1569 -128 1984 -844 
L 1484 -844 
Q 1016 -109 783 600 
Q 550 1309 550 2009 
Q 550 2706 781 3412 
Q 1013 4119 1484 4856 
L 1984 4856 
z
" transform="scale(0.015625)"/>
       <path id="DejaVuSans-64" d="M 2906 2969 
L 2906 4863 
L 3481 4863 
L 3481 0 
L 2906 0 
L 2906 525 
Q 2725 213 2448 61 
Q 2172 -91 1784 -91 
Q 1150 -91 751 415 
Q 353 922 353 1747 
Q 353 2572 751 3078 
Q 1150 3584 1784 3584 
Q 2172 3584 2448 3432 
Q 2725 3281 2906 2969 
z
M 947 1747 
Q 947 1113 1208 752 
Q 1469 391 1925 391 
Q 2381 391 2643 752 
Q 2906 1113 2906 1747 
Q 2906 2381 2643 2742 
Q 2381 3103 1925 3103 
Q 1469 3103 1208 2742 
Q 947 2381 947 1747 
z
" transform="scale(0.015625)"/>
       <path id="DejaVuSans-29" d="M 513 4856 
L 1013 4856 
Q 1481 4119 1714 3412 
Q 1947 2706 1947 2009 
Q 1947 1309 1714 600 
Q 1481 -109 1013 -844 
L 513 -844 
Q 928 -128 1133 580 
Q 1338 1288 1338 2009 
Q 1338 2731 1133 3434 
Q 928 4138 513 4856 
z
" transform="scale(0.015625)"/>
      </defs>
      <use xlink:href="#DejaVuSans-41"/>
      <use xlink:href="#DejaVuSans-6e" x="68.408203"/>
      <use xlink:href="#DejaVuSans-67" x="131.787109"/>
      <use xlink:href="#DejaVuSans-6c" x="195.263672"/>
      <use xlink:href="#DejaVuSans-65" x="223.046875"/>
      <use xlink:href="#DejaVuSans-20" x="284.570312"/>
      <use xlink:href="#DejaVuSans-77" x="316.357422"/>
      <use xlink:href="#DejaVuSans-69" x="398.144531"/>
      <use xlink:href="#DejaVuSans-74" x="425.927734"/>
      <use xlink:href="#DejaVuSans-68" x="465.136719"/>
      <use xlink:href="#DejaVuSans-20" x="528.515625"/>
      <use xlink:href="#DejaVuSans-6e" x="560.302734"/>
      <use xlink:href="#DejaVuSans-6f" x="623.681641"/>
      <use xlink:href="#DejaVuSans-72" x="684.863281"/>
      <use xlink:href="#DejaVuSans-6d" x="724.226562"/>
      <use xlink:href="#DejaVuSans-61" x="821.638672"/>
      <use xlink:href="#DejaVuSans-6c" x="882.917969"/>
      <use xlink:href="#DejaVuSans-20" x="910.701172"/>
      <use xlink:href="#DejaVuSans-28" x="942.488281"/>
      <use xlink:href="#DejaVuSans-72" x="981.501953"/>
      <use xlink:href="#DejaVuSans-61" x="1022.615234"/>
      <use xlink:href="#DejaVuSans-64" x="1083.894531"/>
      <use xlink:href="#DejaVuSans-29" x="1147.371094"/>
     </g>
    </g>
   </g>
   <g id="matplotlib.axis_2">
    <g id="ytick_1">
     <g id="line2d_10">
      <defs>
       <path id="m70c7bcec15" d="M 0 0 
L -3.5 0 
" style="stroke: #000000; stroke-width: 0.8"/>
      </defs>
      <g>
       <use xlink:href="#m70c7bcec15" x="43.78125" y="273.312" style="stroke: #000000; stroke-width: 0.8"/>
      </g>
     </g>
     <g id="text_11">
      <!-- 0.0 -->
      <g transform="translate(20.878125 277.111219)scale(0.1 -0.1)">
       <use xlink:href="#DejaVuSans-30"/>
       <use xlink:href="#DejaVuSans-2e" x="63.623047"/>
       <use xlink:href="#DejaVuSans-30" x="95.410156"/>
      </g>
     </g>
    </g>
    <g id="ytick_2">
     <g id="line2d_11">
      <g>
       <use xlink:href="#m70c7bcec15" x="43.78125" y="228.705405" style="stroke: #000000; stroke-width: 0.8"/>
      </g>
     </g>
     <g id="text_12">
      <!-- 0.2 -->
      <g transform="translate(20.878125 232.504624)scale(0.1 -0.1)">
       <use xlink:href="#DejaVuSans-30"/>
       <use xlink:href="#DejaVuSans-2e" x="63.623047"/>
       <use xlink:href="#DejaVuSans-32" x="95.410156"/>
      </g>
     </g>
    </g>
    <g id="ytick_3">
     <g id="line2d_12">
      <g>
       <use xlink:href="#m70c7bcec15" x="43.78125" y="184.09881" style="stroke: #000000; stroke-width: 0.8"/>
      </g>
     </g>
     <g id="text_13">
      <!-- 0.4 -->
      <g transform="translate(20.878125 187.898028)scale(0.1 -0.1)">
       <use xlink:href="#DejaVuSans-30"/>
       <use xlink:href="#DejaVuSans-2e" x="63.623047"/>
       <use xlink:href="#DejaVuSans-34" x="95.410156"/>
      </g>
     </g>
    </g>
    <g id="ytick_4">
     <g id="line2d_13">
      <g>
       <use xlink:href="#m70c7bcec15" x="43.78125" y="139.492215" style="stroke: #000000; stroke-width: 0.8"/>
      </g>
     </g>
     <g id="text_14">
      <!-- 0.6 -->
      <g transform="translate(20.878125 143.291433)scale(0.1 -0.1)">
       <use xlink:href="#DejaVuSans-30"/>
       <use xlink:href="#DejaVuSans-2e" x="63.623047"/>
       <use xlink:href="#DejaVuSans-36" x="95.410156"/>
      </g>
     </g>
    </g>
    <g id="ytick_5">
     <g id="line2d_14">
      <g>
       <use xlink:href="#m70c7bcec15" x="43.78125" y="94.885619" style="stroke: #000000; stroke-width: 0.8"/>
      </g>
     </g>
     <g id="text_15">
      <!-- 0.8 -->
      <g transform="translate(20.878125 98.684838)scale(0.1 -0.1)">
       <use xlink:href="#DejaVuSans-30"/>
       <use xlink:href="#DejaVuSans-2e" x="63.623047"/>
       <use xlink:href="#DejaVuSans-38" x="95.410156"/>
      </g>
     </g>
    </g>
    <g id="ytick_6">
     <g id="line2d_15">
      <g>
       <use xlink:href="#m70c7bcec15" x="43.78125" y="50.279024" style="stroke: #000000; stroke-width: 0.8"/>
      </g>
     </g>
     <g id="text_16">
      <!-- 1.0 -->
      <g transform="translate(20.878125 54.078243)scale(0.1 -0.1)">
       <use xlink:href="#DejaVuSans-31"/>
       <use xlink:href="#DejaVuSans-2e" x="63.623047"/>
       <use xlink:href="#DejaVuSans-30" x="95.410156"/>
      </g>
     </g>
    </g>
    <g id="text_17">
     <!-- Probability density -->
     <g transform="translate(14.798438 186.606781)rotate(-90)scale(0.1 -0.1)">
      <defs>
       <path id="DejaVuSans-50" d="M 1259 4147 
L 1259 2394 
L 2053 2394 
Q 2494 2394 2734 2622 
Q 2975 2850 2975 3272 
Q 2975 3691 2734 3919 
Q 2494 4147 2053 4147 
L 1259 4147 
z
M 628 4666 
L 2053 4666 
Q 2838 4666 3239 4311 
Q 3641 3956 3641 3272 
Q 3641 2581 3239 2228 
Q 2838 1875 2053 1875 
L 1259 1875 
L 1259 0 
L 628 0 
L 628 4666 
z
" transform="scale(0.015625)"/>
       <path id="DejaVuSans-62" d="M 3116 1747 
Q 3116 2381 2855 2742 
Q 2594 3103 2138 3103 
Q 1681 3103 1420 2742 
Q 1159 2381 1159 1747 
Q 1159 1113 1420 752 
Q 1681 391 2138 391 
Q 2594 391 2855 752 
Q 3116 1113 3116 1747 
z
M 1159 2969 
Q 1341 3281 1617 3432 
Q 1894 3584 2278 3584 
Q 2916 3584 3314 3078 
Q 3713 2572 3713 1747 
Q 3713 922 3314 415 
Q 2916 -91 2278 -91 
Q 1894 -91 1617 61 
Q 1341 213 1159 525 
L 1159 0 
L 581 0 
L 581 4863 
L 1159 4863 
L 1159 2969 
z
" transform="scale(0.015625)"/>
       <path id="DejaVuSans-79" d="M 2059 -325 
Q 1816 -950 1584 -1140 
Q 1353 -1331 966 -1331 
L 506 -1331 
L 506 -850 
L 844 -850 
Q 1081 -850 1212 -737 
Q 1344 -625 1503 -206 
L 1606 56 
L 191 3500 
L 800 3500 
L 1894 763 
L 2988 3500 
L 3597 3500 
L 2059 -325 
z
" transform="scale(0.015625)"/>
       <path id="DejaVuSans-73" d="M 2834 3397 
L 2834 2853 
Q 2591 2978 2328 3040 
Q 2066 3103 1784 3103 
Q 1356 3103 1142 2972 
Q 928 2841 928 2578 
Q 928 2378 1081 2264 
Q 1234 2150 1697 2047 
L 1894 2003 
Q 2506 1872 2764 1633 
Q 3022 1394 3022 966 
Q 3022 478 2636 193 
Q 2250 -91 1575 -91 
Q 1294 -91 989 -36 
Q 684 19 347 128 
L 347 722 
Q 666 556 975 473 
Q 1284 391 1588 391 
Q 1994 391 2212 530 
Q 2431 669 2431 922 
Q 2431 1156 2273 1281 
Q 2116 1406 1581 1522 
L 1381 1569 
Q 847 1681 609 1914 
Q 372 2147 372 2553 
Q 372 3047 722 3315 
Q 1072 3584 1716 3584 
Q 2034 3584 2315 3537 
Q 2597 3491 2834 3397 
z
" transform="scale(0.015625)"/>
      </defs>
      <use xlink:href="#DejaVuSans-50"/>
      <use xlink:href="#DejaVuSans-72" x="58.552734"/>
      <use xlink:href="#DejaVuSans-6f" x="97.416016"/>
      <use xlink:href="#DejaVuSans-62" x="158.597656"/>
      <use xlink:href="#DejaVuSans-61" x="222.074219"/>
      <use xlink:href="#DejaVuSans-62" x="283.353516"/>
      <use xlink:href="#DejaVuSans-69" x="346.830078"/>
      <use xlink:href="#DejaVuSans-6c" x="374.613281"/>
      <use xlink:href="#DejaVuSans-69" x="402.396484"/>
      <use xlink:href="#DejaVuSans-74" x="430.179688"/>
      <use xlink:href="#DejaVuSans-79" x="469.388672"/>
      <use xlink:href="#DejaVuSans-20" x="528.568359"/>
      <use xlink:href="#DejaVuSans-64" x="560.355469"/>
      <use xlink:href="#DejaVuSans-65" x="623.832031"/>
      <use xlink:href="#DejaVuSans-6e" x="685.355469"/>
      <use xlink:href="#DejaVuSans-73" x="748.734375"/>
      <use xlink:href="#DejaVuSans-69" x="800.833984"/>
      <use xlink:href="#DejaVuSans-74" x="828.617188"/>
      <use xlink:href="#DejaVuSans-79" x="867.826172"/>
     </g>
    </g>
   </g>
   <g id="line2d_16">
    <path d="M 60.013977 273.312 
L 79.837728 230.789727 
L 90.237073 209.009543 
L 99.01152 191.129836 
L 106.811029 175.729941 
L 113.960578 162.099356 
L 120.460169 150.16799 
L 126.63478 139.283537 
L 132.484411 129.412588 
L 138.009063 120.512757 
L 143.208736 112.534839 
L 148.408408 104.963871 
L 153.283101 98.252739 
L 158.157794 91.93106 
L 162.707507 86.394621 
L 167.257221 81.220427 
L 171.481954 76.748954 
L 175.706688 72.605952 
L 179.606442 69.079181 
L 183.506197 65.843218 
L 187.405951 62.902669 
L 190.980726 60.470263 
L 194.555501 58.292522 
L 198.130275 56.37205 
L 201.70505 54.711146 
L 205.279825 53.311796 
L 208.52962 52.268044 
L 211.779415 51.442873 
L 215.029211 50.837098 
L 218.279006 50.451319 
L 221.528801 50.285917 
L 224.778596 50.341056 
L 228.028392 50.61668 
L 231.278187 51.112519 
L 234.527982 51.82808 
L 237.777777 52.762657 
L 241.027573 53.915326 
L 244.602347 55.43379 
L 248.177122 57.212945 
L 251.751897 59.250661 
L 255.326672 61.5445 
L 258.901447 64.091718 
L 262.801201 67.15589 
L 266.700955 70.513607 
L 270.600709 74.160089 
L 274.825443 78.430276 
L 279.050177 83.026124 
L 283.274911 87.939953 
L 287.824624 93.577951 
L 292.374338 99.564275 
L 297.249031 106.351533 
L 302.123723 113.510228 
L 307.323396 121.537616 
L 312.848048 130.487163 
L 318.697679 140.407404 
L 324.87229 151.339977 
L 331.371881 163.317475 
L 338.196451 176.361109 
L 345.67098 191.129836 
L 354.120447 208.338265 
L 363.869833 228.726106 
L 376.544035 255.795554 
L 384.668523 273.312 
L 384.668523 273.312 
" clip-path="url(#pe24fc015ea)" style="fill: none; stroke: #ff7f0e; stroke-width: 1.5; stroke-linecap: square"/>
   </g>
   <g id="patch_203">
    <path d="M 43.78125 273.312 
L 43.78125 7.2 
" style="fill: none; stroke: #000000; stroke-width: 0.8; stroke-linejoin: miter; stroke-linecap: square"/>
   </g>
   <g id="patch_204">
    <path d="M 400.90125 273.312 
L 400.90125 7.2 
" style="fill: none; stroke: #000000; stroke-width: 0.8; stroke-linejoin: miter; stroke-linecap: square"/>
   </g>
   <g id="patch_205">
    <path d="M 43.78125 273.312 
L 400.90125 273.312 
" style="fill: none; stroke: #000000; stroke-width: 0.8; stroke-linejoin: miter; stroke-linecap: square"/>
   </g>
   <g id="patch_206">
    <path d="M 43.78125 7.2 
L 400.90125 7.2 
" style="fill: none; stroke: #000000; stroke-width: 0.8; stroke-linejoin: miter; stroke-linecap: square"/>
   </g>
  </g>
 </g>
 <defs>
  <clipPath id="pe24fc015ea">
   <rect x="43.78125" y="7.2" width="357.12" height="266.112"/>
  </clipPath>
 </defs>
</svg>
