<?xml version="1.0" encoding="utf-8" standalone="no"?>
<!DOCTYPE svg PUBLIC "-//W3C//DTD SVG 1.1//EN"
  "http://www.w3.org/Graphics/SVG/1.1/DTD/svg11.dtd">
<svg xmlns:xlink="http://www.w3.org/1999/xlink" width="414.46375pt" height="310.86825pt" viewBox="0 0 414.46375 310.86825" xmlns="http://www.w3.org/2000/svg" version="1.1">
 <metadata>
  <rdf:RDF xmlns:dc="http://purl.org/dc/elements/1.1/" xmlns:cc="http://creativecommons.org/ns#" xmlns:rdf="http://www.w3.org/1999/02/22-rdf-syntax-ns#">
   <cc:Work>
    <dc:type rdf:resource="http://purl.org/dc/dcmitype/StillImage"/>
    <dc:date>2022-04-21T23:32:59.077906</dc:date>
    <dc:format>image/svg+xml</dc:format>
    <dc:creator>
     <cc:Agent>
      <dc:title>Matplotlib v3.5.1, https://matplotlib.org/</dc:title>
     </cc:Agent>
    </dc:creator>
   </cc:Work>
  </rdf:RDF>
 </metadata>
 <defs>
  <style type="text/css">*{stroke-linejoin: round; stroke-linecap: butt}</style>
 </defs>
 <g id="figure_1">
  <g id="patch_1">
   <path d="M 0 310.86825 
L 414.46375 310.86825 
L 414.46375 0 
L 0 0 
z
" style="fill: #ffffff"/>
  </g>
  <g id="axes_1">
   <g id="patch_2">
    <path d="M 50.14375 273.312 
L 407.26375 273.312 
L 407.26375 7.2 
L 50.14375 7.2 
z
" style="fill: #ffffff"/>
   </g>
   <g id="patch_3">
    <path d="M 67.191804 273.312 
L 68.810968 273.312 
L 68.810968 270.337352 
L 67.191804 270.337352 
z
" clip-path="url(#pc5f498a75d)" style="fill: #1f77b4"/>
   </g>
   <g id="patch_4">
    <path d="M 68.810968 273.312 
L 70.430133 273.312 
L 70.430133 270.932282 
L 68.810968 270.932282 
z
" clip-path="url(#pc5f498a75d)" style="fill: #1f77b4"/>
   </g>
   <g id="patch_5">
    <path d="M 70.430133 273.312 
L 72.049297 273.312 
L 72.049297 266.767775 
L 70.430133 266.767775 
z
" clip-path="url(#pc5f498a75d)" style="fill: #1f77b4"/>
   </g>
   <g id="patch_6">
    <path d="M 72.049297 273.312 
L 73.668462 273.312 
L 73.668462 268.552563 
L 72.049297 268.552563 
z
" clip-path="url(#pc5f498a75d)" style="fill: #1f77b4"/>
   </g>
   <g id="patch_7">
    <path d="M 73.668462 273.312 
L 75.287626 273.312 
L 75.287626 266.767775 
L 73.668462 266.767775 
z
" clip-path="url(#pc5f498a75d)" style="fill: #1f77b4"/>
   </g>
   <g id="patch_8">
    <path d="M 75.287626 273.312 
L 76.906791 273.312 
L 76.906791 267.957634 
L 75.287626 267.957634 
z
" clip-path="url(#pc5f498a75d)" style="fill: #1f77b4"/>
   </g>
   <g id="patch_9">
    <path d="M 76.906791 273.312 
L 78.525955 273.312 
L 78.525955 264.388056 
L 76.906791 264.388056 
z
" clip-path="url(#pc5f498a75d)" style="fill: #1f77b4"/>
   </g>
   <g id="patch_10">
    <path d="M 78.525955 273.312 
L 80.145119 273.312 
L 80.145119 264.388056 
L 78.525955 264.388056 
z
" clip-path="url(#pc5f498a75d)" style="fill: #1f77b4"/>
   </g>
   <g id="patch_11">
    <path d="M 80.145119 273.312 
L 81.764284 273.312 
L 81.764284 260.223549 
L 80.145119 260.223549 
z
" clip-path="url(#pc5f498a75d)" style="fill: #1f77b4"/>
   </g>
   <g id="patch_12">
    <path d="M 81.764284 273.312 
L 83.383448 273.312 
L 83.383448 260.818479 
L 81.764284 260.818479 
z
" clip-path="url(#pc5f498a75d)" style="fill: #1f77b4"/>
   </g>
   <g id="patch_13">
    <path d="M 83.383448 273.312 
L 85.002613 273.312 
L 85.002613 262.603268 
L 83.383448 262.603268 
z
" clip-path="url(#pc5f498a75d)" style="fill: #1f77b4"/>
   </g>
   <g id="patch_14">
    <path d="M 85.002613 273.312 
L 86.621777 273.312 
L 86.621777 262.603268 
L 85.002613 262.603268 
z
" clip-path="url(#pc5f498a75d)" style="fill: #1f77b4"/>
   </g>
   <g id="patch_15">
    <path d="M 86.621777 273.312 
L 88.240942 273.312 
L 88.240942 260.223549 
L 86.621777 260.223549 
z
" clip-path="url(#pc5f498a75d)" style="fill: #1f77b4"/>
   </g>
   <g id="patch_16">
    <path d="M 88.240942 273.312 
L 89.860106 273.312 
L 89.860106 253.679324 
L 88.240942 253.679324 
z
" clip-path="url(#pc5f498a75d)" style="fill: #1f77b4"/>
   </g>
   <g id="patch_17">
    <path d="M 89.860106 273.312 
L 91.479271 273.312 
L 91.479271 259.62862 
L 89.860106 259.62862 
z
" clip-path="url(#pc5f498a75d)" style="fill: #1f77b4"/>
   </g>
   <g id="patch_18">
    <path d="M 91.479271 273.312 
L 93.098435 273.312 
L 93.098435 257.843831 
L 91.479271 257.843831 
z
" clip-path="url(#pc5f498a75d)" style="fill: #1f77b4"/>
   </g>
   <g id="patch_19">
    <path d="M 93.098435 273.312 
L 94.717599 273.312 
L 94.717599 259.62862 
L 93.098435 259.62862 
z
" clip-path="url(#pc5f498a75d)" style="fill: #1f77b4"/>
   </g>
   <g id="patch_20">
    <path d="M 94.717599 273.312 
L 96.336764 273.312 
L 96.336764 252.489465 
L 94.717599 252.489465 
z
" clip-path="url(#pc5f498a75d)" style="fill: #1f77b4"/>
   </g>
   <g id="patch_21">
    <path d="M 96.336764 273.312 
L 97.955928 273.312 
L 97.955928 253.679324 
L 96.336764 253.679324 
z
" clip-path="url(#pc5f498a75d)" style="fill: #1f77b4"/>
   </g>
   <g id="patch_22">
    <path d="M 97.955928 273.312 
L 99.575093 273.312 
L 99.575093 245.945239 
L 97.955928 245.945239 
z
" clip-path="url(#pc5f498a75d)" style="fill: #1f77b4"/>
   </g>
   <g id="patch_23">
    <path d="M 99.575093 273.312 
L 101.194257 273.312 
L 101.194257 247.135099 
L 99.575093 247.135099 
z
" clip-path="url(#pc5f498a75d)" style="fill: #1f77b4"/>
   </g>
   <g id="patch_24">
    <path d="M 101.194257 273.312 
L 102.813422 273.312 
L 102.813422 249.514817 
L 101.194257 249.514817 
z
" clip-path="url(#pc5f498a75d)" style="fill: #1f77b4"/>
   </g>
   <g id="patch_25">
    <path d="M 102.813422 273.312 
L 104.432586 273.312 
L 104.432586 253.679324 
L 102.813422 253.679324 
z
" clip-path="url(#pc5f498a75d)" style="fill: #1f77b4"/>
   </g>
   <g id="patch_26">
    <path d="M 104.432586 273.312 
L 106.051751 273.312 
L 106.051751 246.540169 
L 104.432586 246.540169 
z
" clip-path="url(#pc5f498a75d)" style="fill: #1f77b4"/>
   </g>
   <g id="patch_27">
    <path d="M 106.051751 273.312 
L 107.670915 273.312 
L 107.670915 245.35031 
L 106.051751 245.35031 
z
" clip-path="url(#pc5f498a75d)" style="fill: #1f77b4"/>
   </g>
   <g id="patch_28">
    <path d="M 107.670915 273.312 
L 109.290079 273.312 
L 109.290079 238.806085 
L 107.670915 238.806085 
z
" clip-path="url(#pc5f498a75d)" style="fill: #1f77b4"/>
   </g>
   <g id="patch_29">
    <path d="M 109.290079 273.312 
L 110.909244 273.312 
L 110.909244 247.135099 
L 109.290079 247.135099 
z
" clip-path="url(#pc5f498a75d)" style="fill: #1f77b4"/>
   </g>
   <g id="patch_30">
    <path d="M 110.909244 273.312 
L 112.528408 273.312 
L 112.528408 238.806085 
L 110.909244 238.806085 
z
" clip-path="url(#pc5f498a75d)" style="fill: #1f77b4"/>
   </g>
   <g id="patch_31">
    <path d="M 112.528408 273.312 
L 114.147573 273.312 
L 114.147573 236.426366 
L 112.528408 236.426366 
z
" clip-path="url(#pc5f498a75d)" style="fill: #1f77b4"/>
   </g>
   <g id="patch_32">
    <path d="M 114.147573 273.312 
L 115.766737 273.312 
L 115.766737 238.806085 
L 114.147573 238.806085 
z
" clip-path="url(#pc5f498a75d)" style="fill: #1f77b4"/>
   </g>
   <g id="patch_33">
    <path d="M 115.766737 273.312 
L 117.385902 273.312 
L 117.385902 241.185803 
L 115.766737 241.185803 
z
" clip-path="url(#pc5f498a75d)" style="fill: #1f77b4"/>
   </g>
   <g id="patch_34">
    <path d="M 117.385902 273.312 
L 119.005066 273.312 
L 119.005066 235.831437 
L 117.385902 235.831437 
z
" clip-path="url(#pc5f498a75d)" style="fill: #1f77b4"/>
   </g>
   <g id="patch_35">
    <path d="M 119.005066 273.312 
L 120.624231 273.312 
L 120.624231 231.072 
L 119.005066 231.072 
z
" clip-path="url(#pc5f498a75d)" style="fill: #1f77b4"/>
   </g>
   <g id="patch_36">
    <path d="M 120.624231 273.312 
L 122.243395 273.312 
L 122.243395 227.502423 
L 120.624231 227.502423 
z
" clip-path="url(#pc5f498a75d)" style="fill: #1f77b4"/>
   </g>
   <g id="patch_37">
    <path d="M 122.243395 273.312 
L 123.862559 273.312 
L 123.862559 229.882141 
L 122.243395 229.882141 
z
" clip-path="url(#pc5f498a75d)" style="fill: #1f77b4"/>
   </g>
   <g id="patch_38">
    <path d="M 123.862559 273.312 
L 125.481724 273.312 
L 125.481724 230.47707 
L 123.862559 230.47707 
z
" clip-path="url(#pc5f498a75d)" style="fill: #1f77b4"/>
   </g>
   <g id="patch_39">
    <path d="M 125.481724 273.312 
L 127.100888 273.312 
L 127.100888 216.79369 
L 125.481724 216.79369 
z
" clip-path="url(#pc5f498a75d)" style="fill: #1f77b4"/>
   </g>
   <g id="patch_40">
    <path d="M 127.100888 273.312 
L 128.720053 273.312 
L 128.720053 229.882141 
L 127.100888 229.882141 
z
" clip-path="url(#pc5f498a75d)" style="fill: #1f77b4"/>
   </g>
   <g id="patch_41">
    <path d="M 128.720053 273.312 
L 130.339217 273.312 
L 130.339217 236.426366 
L 128.720053 236.426366 
z
" clip-path="url(#pc5f498a75d)" style="fill: #1f77b4"/>
   </g>
   <g id="patch_42">
    <path d="M 130.339217 273.312 
L 131.958382 273.312 
L 131.958382 231.072 
L 130.339217 231.072 
z
" clip-path="url(#pc5f498a75d)" style="fill: #1f77b4"/>
   </g>
   <g id="patch_43">
    <path d="M 131.958382 273.312 
L 133.577546 273.312 
L 133.577546 223.337915 
L 131.958382 223.337915 
z
" clip-path="url(#pc5f498a75d)" style="fill: #1f77b4"/>
   </g>
   <g id="patch_44">
    <path d="M 133.577546 273.312 
L 135.196711 273.312 
L 135.196711 224.527775 
L 133.577546 224.527775 
z
" clip-path="url(#pc5f498a75d)" style="fill: #1f77b4"/>
   </g>
   <g id="patch_45">
    <path d="M 135.196711 273.312 
L 136.815875 273.312 
L 136.815875 228.692282 
L 135.196711 228.692282 
z
" clip-path="url(#pc5f498a75d)" style="fill: #1f77b4"/>
   </g>
   <g id="patch_46">
    <path d="M 136.815875 273.312 
L 138.435039 273.312 
L 138.435039 225.717634 
L 136.815875 225.717634 
z
" clip-path="url(#pc5f498a75d)" style="fill: #1f77b4"/>
   </g>
   <g id="patch_47">
    <path d="M 138.435039 273.312 
L 140.054204 273.312 
L 140.054204 220.363268 
L 138.435039 220.363268 
z
" clip-path="url(#pc5f498a75d)" style="fill: #1f77b4"/>
   </g>
   <g id="patch_48">
    <path d="M 140.054204 273.312 
L 141.673368 273.312 
L 141.673368 212.629183 
L 140.054204 212.629183 
z
" clip-path="url(#pc5f498a75d)" style="fill: #1f77b4"/>
   </g>
   <g id="patch_49">
    <path d="M 141.673368 273.312 
L 143.292533 273.312 
L 143.292533 230.47707 
L 141.673368 230.47707 
z
" clip-path="url(#pc5f498a75d)" style="fill: #1f77b4"/>
   </g>
   <g id="patch_50">
    <path d="M 143.292533 273.312 
L 144.911697 273.312 
L 144.911697 212.629183 
L 143.292533 212.629183 
z
" clip-path="url(#pc5f498a75d)" style="fill: #1f77b4"/>
   </g>
   <g id="patch_51">
    <path d="M 144.911697 273.312 
L 146.530862 273.312 
L 146.530862 216.198761 
L 144.911697 216.198761 
z
" clip-path="url(#pc5f498a75d)" style="fill: #1f77b4"/>
   </g>
   <g id="patch_52">
    <path d="M 146.530862 273.312 
L 148.150026 273.312 
L 148.150026 216.79369 
L 146.530862 216.79369 
z
" clip-path="url(#pc5f498a75d)" style="fill: #1f77b4"/>
   </g>
   <g id="patch_53">
    <path d="M 148.150026 273.312 
L 149.769191 273.312 
L 149.769191 198.350873 
L 148.150026 198.350873 
z
" clip-path="url(#pc5f498a75d)" style="fill: #1f77b4"/>
   </g>
   <g id="patch_54">
    <path d="M 149.769191 273.312 
L 151.388355 273.312 
L 151.388355 217.38862 
L 149.769191 217.38862 
z
" clip-path="url(#pc5f498a75d)" style="fill: #1f77b4"/>
   </g>
   <g id="patch_55">
    <path d="M 151.388355 273.312 
L 153.00752 273.312 
L 153.00752 206.084958 
L 151.388355 206.084958 
z
" clip-path="url(#pc5f498a75d)" style="fill: #1f77b4"/>
   </g>
   <g id="patch_56">
    <path d="M 153.00752 273.312 
L 154.626684 273.312 
L 154.626684 216.198761 
L 153.00752 216.198761 
z
" clip-path="url(#pc5f498a75d)" style="fill: #1f77b4"/>
   </g>
   <g id="patch_57">
    <path d="M 154.626684 273.312 
L 156.245848 273.312 
L 156.245848 198.945803 
L 154.626684 198.945803 
z
" clip-path="url(#pc5f498a75d)" style="fill: #1f77b4"/>
   </g>
   <g id="patch_58">
    <path d="M 156.245848 273.312 
L 157.865013 273.312 
L 157.865013 203.11031 
L 156.245848 203.11031 
z
" clip-path="url(#pc5f498a75d)" style="fill: #1f77b4"/>
   </g>
   <g id="patch_59">
    <path d="M 157.865013 273.312 
L 159.484177 273.312 
L 159.484177 205.490028 
L 157.865013 205.490028 
z
" clip-path="url(#pc5f498a75d)" style="fill: #1f77b4"/>
   </g>
   <g id="patch_60">
    <path d="M 159.484177 273.312 
L 161.103342 273.312 
L 161.103342 214.413972 
L 159.484177 214.413972 
z
" clip-path="url(#pc5f498a75d)" style="fill: #1f77b4"/>
   </g>
   <g id="patch_61">
    <path d="M 161.103342 273.312 
L 162.722506 273.312 
L 162.722506 203.11031 
L 161.103342 203.11031 
z
" clip-path="url(#pc5f498a75d)" style="fill: #1f77b4"/>
   </g>
   <g id="patch_62">
    <path d="M 162.722506 273.312 
L 164.341671 273.312 
L 164.341671 203.705239 
L 162.722506 203.705239 
z
" clip-path="url(#pc5f498a75d)" style="fill: #1f77b4"/>
   </g>
   <g id="patch_63">
    <path d="M 164.341671 273.312 
L 165.960835 273.312 
L 165.960835 200.730592 
L 164.341671 200.730592 
z
" clip-path="url(#pc5f498a75d)" style="fill: #1f77b4"/>
   </g>
   <g id="patch_64">
    <path d="M 165.960835 273.312 
L 167.58 273.312 
L 167.58 207.274817 
L 165.960835 207.274817 
z
" clip-path="url(#pc5f498a75d)" style="fill: #1f77b4"/>
   </g>
   <g id="patch_65">
    <path d="M 167.58 273.312 
L 169.199164 273.312 
L 169.199164 203.11031 
L 167.58 203.11031 
z
" clip-path="url(#pc5f498a75d)" style="fill: #1f77b4"/>
   </g>
   <g id="patch_66">
    <path d="M 169.199164 273.312 
L 170.818328 273.312 
L 170.818328 194.186366 
L 169.199164 194.186366 
z
" clip-path="url(#pc5f498a75d)" style="fill: #1f77b4"/>
   </g>
   <g id="patch_67">
    <path d="M 170.818328 273.312 
L 172.437493 273.312 
L 172.437493 194.781296 
L 170.818328 194.781296 
z
" clip-path="url(#pc5f498a75d)" style="fill: #1f77b4"/>
   </g>
   <g id="patch_68">
    <path d="M 172.437493 273.312 
L 174.056657 273.312 
L 174.056657 175.14862 
L 172.437493 175.14862 
z
" clip-path="url(#pc5f498a75d)" style="fill: #1f77b4"/>
   </g>
   <g id="patch_69">
    <path d="M 174.056657 273.312 
L 175.675822 273.312 
L 175.675822 182.287775 
L 174.056657 182.287775 
z
" clip-path="url(#pc5f498a75d)" style="fill: #1f77b4"/>
   </g>
   <g id="patch_70">
    <path d="M 175.675822 273.312 
L 177.294986 273.312 
L 177.294986 192.996507 
L 175.675822 192.996507 
z
" clip-path="url(#pc5f498a75d)" style="fill: #1f77b4"/>
   </g>
   <g id="patch_71">
    <path d="M 177.294986 273.312 
L 178.914151 273.312 
L 178.914151 182.882704 
L 177.294986 182.882704 
z
" clip-path="url(#pc5f498a75d)" style="fill: #1f77b4"/>
   </g>
   <g id="patch_72">
    <path d="M 178.914151 273.312 
L 180.533315 273.312 
L 180.533315 188.832 
L 178.914151 188.832 
z
" clip-path="url(#pc5f498a75d)" style="fill: #1f77b4"/>
   </g>
   <g id="patch_73">
    <path d="M 180.533315 273.312 
L 182.15248 273.312 
L 182.15248 188.832 
L 180.533315 188.832 
z
" clip-path="url(#pc5f498a75d)" style="fill: #1f77b4"/>
   </g>
   <g id="patch_74">
    <path d="M 182.15248 273.312 
L 183.771644 273.312 
L 183.771644 194.186366 
L 182.15248 194.186366 
z
" clip-path="url(#pc5f498a75d)" style="fill: #1f77b4"/>
   </g>
   <g id="patch_75">
    <path d="M 183.771644 273.312 
L 185.390808 273.312 
L 185.390808 195.971155 
L 183.771644 195.971155 
z
" clip-path="url(#pc5f498a75d)" style="fill: #1f77b4"/>
   </g>
   <g id="patch_76">
    <path d="M 185.390808 273.312 
L 187.009973 273.312 
L 187.009973 181.097915 
L 185.390808 181.097915 
z
" clip-path="url(#pc5f498a75d)" style="fill: #1f77b4"/>
   </g>
   <g id="patch_77">
    <path d="M 187.009973 273.312 
L 188.629137 273.312 
L 188.629137 185.262423 
L 187.009973 185.262423 
z
" clip-path="url(#pc5f498a75d)" style="fill: #1f77b4"/>
   </g>
   <g id="patch_78">
    <path d="M 188.629137 273.312 
L 190.248302 273.312 
L 190.248302 186.452282 
L 188.629137 186.452282 
z
" clip-path="url(#pc5f498a75d)" style="fill: #1f77b4"/>
   </g>
   <g id="patch_79">
    <path d="M 190.248302 273.312 
L 191.867466 273.312 
L 191.867466 186.452282 
L 190.248302 186.452282 
z
" clip-path="url(#pc5f498a75d)" style="fill: #1f77b4"/>
   </g>
   <g id="patch_80">
    <path d="M 191.867466 273.312 
L 193.486631 273.312 
L 193.486631 184.072563 
L 191.867466 184.072563 
z
" clip-path="url(#pc5f498a75d)" style="fill: #1f77b4"/>
   </g>
   <g id="patch_81">
    <path d="M 193.486631 273.312 
L 195.105795 273.312 
L 195.105795 176.933408 
L 193.486631 176.933408 
z
" clip-path="url(#pc5f498a75d)" style="fill: #1f77b4"/>
   </g>
   <g id="patch_82">
    <path d="M 195.105795 273.312 
L 196.72496 273.312 
L 196.72496 181.692845 
L 195.105795 181.692845 
z
" clip-path="url(#pc5f498a75d)" style="fill: #1f77b4"/>
   </g>
   <g id="patch_83">
    <path d="M 196.72496 273.312 
L 198.344124 273.312 
L 198.344124 172.173972 
L 196.72496 172.173972 
z
" clip-path="url(#pc5f498a75d)" style="fill: #1f77b4"/>
   </g>
   <g id="patch_84">
    <path d="M 198.344124 273.312 
L 199.963288 273.312 
L 199.963288 179.908056 
L 198.344124 179.908056 
z
" clip-path="url(#pc5f498a75d)" style="fill: #1f77b4"/>
   </g>
   <g id="patch_85">
    <path d="M 199.963288 273.312 
L 201.582453 273.312 
L 201.582453 174.55369 
L 199.963288 174.55369 
z
" clip-path="url(#pc5f498a75d)" style="fill: #1f77b4"/>
   </g>
   <g id="patch_86">
    <path d="M 201.582453 273.312 
L 203.201617 273.312 
L 203.201617 181.097915 
L 201.582453 181.097915 
z
" clip-path="url(#pc5f498a75d)" style="fill: #1f77b4"/>
   </g>
   <g id="patch_87">
    <path d="M 203.201617 273.312 
L 204.820782 273.312 
L 204.820782 174.55369 
L 203.201617 174.55369 
z
" clip-path="url(#pc5f498a75d)" style="fill: #1f77b4"/>
   </g>
   <g id="patch_88">
    <path d="M 204.820782 273.312 
L 206.439946 273.312 
L 206.439946 163.844958 
L 204.820782 163.844958 
z
" clip-path="url(#pc5f498a75d)" style="fill: #1f77b4"/>
   </g>
   <g id="patch_89">
    <path d="M 206.439946 273.312 
L 208.059111 273.312 
L 208.059111 182.882704 
L 206.439946 182.882704 
z
" clip-path="url(#pc5f498a75d)" style="fill: #1f77b4"/>
   </g>
   <g id="patch_90">
    <path d="M 208.059111 273.312 
L 209.678275 273.312 
L 209.678275 176.338479 
L 208.059111 176.338479 
z
" clip-path="url(#pc5f498a75d)" style="fill: #1f77b4"/>
   </g>
   <g id="patch_91">
    <path d="M 209.678275 273.312 
L 211.29744 273.312 
L 211.29744 172.768901 
L 209.678275 172.768901 
z
" clip-path="url(#pc5f498a75d)" style="fill: #1f77b4"/>
   </g>
   <g id="patch_92">
    <path d="M 211.29744 273.312 
L 212.916604 273.312 
L 212.916604 156.110873 
L 211.29744 156.110873 
z
" clip-path="url(#pc5f498a75d)" style="fill: #1f77b4"/>
   </g>
   <g id="patch_93">
    <path d="M 212.916604 273.312 
L 214.535768 273.312 
L 214.535768 177.528338 
L 212.916604 177.528338 
z
" clip-path="url(#pc5f498a75d)" style="fill: #1f77b4"/>
   </g>
   <g id="patch_94">
    <path d="M 214.535768 273.312 
L 216.154933 273.312 
L 216.154933 168.009465 
L 214.535768 168.009465 
z
" clip-path="url(#pc5f498a75d)" style="fill: #1f77b4"/>
   </g>
   <g id="patch_95">
    <path d="M 216.154933 273.312 
L 217.774097 273.312 
L 217.774097 156.110873 
L 216.154933 156.110873 
z
" clip-path="url(#pc5f498a75d)" style="fill: #1f77b4"/>
   </g>
   <g id="patch_96">
    <path d="M 217.774097 273.312 
L 219.393262 273.312 
L 219.393262 157.895662 
L 217.774097 157.895662 
z
" clip-path="url(#pc5f498a75d)" style="fill: #1f77b4"/>
   </g>
   <g id="patch_97">
    <path d="M 219.393262 273.312 
L 221.012426 273.312 
L 221.012426 176.338479 
L 219.393262 176.338479 
z
" clip-path="url(#pc5f498a75d)" style="fill: #1f77b4"/>
   </g>
   <g id="patch_98">
    <path d="M 221.012426 273.312 
L 222.631591 273.312 
L 222.631591 152.541296 
L 221.012426 152.541296 
z
" clip-path="url(#pc5f498a75d)" style="fill: #1f77b4"/>
   </g>
   <g id="patch_99">
    <path d="M 222.631591 273.312 
L 224.250755 273.312 
L 224.250755 163.844958 
L 222.631591 163.844958 
z
" clip-path="url(#pc5f498a75d)" style="fill: #1f77b4"/>
   </g>
   <g id="patch_100">
    <path d="M 224.250755 273.312 
L 225.86992 273.312 
L 225.86992 151.946366 
L 224.250755 151.946366 
z
" clip-path="url(#pc5f498a75d)" style="fill: #1f77b4"/>
   </g>
   <g id="patch_101">
    <path d="M 225.86992 273.312 
L 227.489084 273.312 
L 227.489084 167.414535 
L 225.86992 167.414535 
z
" clip-path="url(#pc5f498a75d)" style="fill: #1f77b4"/>
   </g>
   <g id="patch_102">
    <path d="M 227.489084 273.312 
L 229.108248 273.312 
L 229.108248 157.895662 
L 227.489084 157.895662 
z
" clip-path="url(#pc5f498a75d)" style="fill: #1f77b4"/>
   </g>
   <g id="patch_103">
    <path d="M 229.108248 273.312 
L 230.727413 273.312 
L 230.727413 157.300732 
L 229.108248 157.300732 
z
" clip-path="url(#pc5f498a75d)" style="fill: #1f77b4"/>
   </g>
   <g id="patch_104">
    <path d="M 230.727413 273.312 
L 232.346577 273.312 
L 232.346577 150.161577 
L 230.727413 150.161577 
z
" clip-path="url(#pc5f498a75d)" style="fill: #1f77b4"/>
   </g>
   <g id="patch_105">
    <path d="M 232.346577 273.312 
L 233.965742 273.312 
L 233.965742 140.047775 
L 232.346577 140.047775 
z
" clip-path="url(#pc5f498a75d)" style="fill: #1f77b4"/>
   </g>
   <g id="patch_106">
    <path d="M 233.965742 273.312 
L 235.584906 273.312 
L 235.584906 148.971718 
L 233.965742 148.971718 
z
" clip-path="url(#pc5f498a75d)" style="fill: #1f77b4"/>
   </g>
   <g id="patch_107">
    <path d="M 235.584906 273.312 
L 237.204071 273.312 
L 237.204071 156.705803 
L 235.584906 156.705803 
z
" clip-path="url(#pc5f498a75d)" style="fill: #1f77b4"/>
   </g>
   <g id="patch_108">
    <path d="M 237.204071 273.312 
L 238.823235 273.312 
L 238.823235 137.668056 
L 237.204071 137.668056 
z
" clip-path="url(#pc5f498a75d)" style="fill: #1f77b4"/>
   </g>
   <g id="patch_109">
    <path d="M 238.823235 273.312 
L 240.4424 273.312 
L 240.4424 152.541296 
L 238.823235 152.541296 
z
" clip-path="url(#pc5f498a75d)" style="fill: #1f77b4"/>
   </g>
   <g id="patch_110">
    <path d="M 240.4424 273.312 
L 242.061564 273.312 
L 242.061564 141.832563 
L 240.4424 141.832563 
z
" clip-path="url(#pc5f498a75d)" style="fill: #1f77b4"/>
   </g>
   <g id="patch_111">
    <path d="M 242.061564 273.312 
L 243.680728 273.312 
L 243.680728 138.857915 
L 242.061564 138.857915 
z
" clip-path="url(#pc5f498a75d)" style="fill: #1f77b4"/>
   </g>
   <g id="patch_112">
    <path d="M 243.680728 273.312 
L 245.299893 273.312 
L 245.299893 148.376789 
L 243.680728 148.376789 
z
" clip-path="url(#pc5f498a75d)" style="fill: #1f77b4"/>
   </g>
   <g id="patch_113">
    <path d="M 245.299893 273.312 
L 246.919057 273.312 
L 246.919057 147.781859 
L 245.299893 147.781859 
z
" clip-path="url(#pc5f498a75d)" style="fill: #1f77b4"/>
   </g>
   <g id="patch_114">
    <path d="M 246.919057 273.312 
L 248.538222 273.312 
L 248.538222 130.528901 
L 246.919057 130.528901 
z
" clip-path="url(#pc5f498a75d)" style="fill: #1f77b4"/>
   </g>
   <g id="patch_115">
    <path d="M 248.538222 273.312 
L 250.157386 273.312 
L 250.157386 123.389746 
L 248.538222 123.389746 
z
" clip-path="url(#pc5f498a75d)" style="fill: #1f77b4"/>
   </g>
   <g id="patch_116">
    <path d="M 250.157386 273.312 
L 251.776551 273.312 
L 251.776551 153.136225 
L 250.157386 153.136225 
z
" clip-path="url(#pc5f498a75d)" style="fill: #1f77b4"/>
   </g>
   <g id="patch_117">
    <path d="M 251.776551 273.312 
L 253.395715 273.312 
L 253.395715 134.693408 
L 251.776551 134.693408 
z
" clip-path="url(#pc5f498a75d)" style="fill: #1f77b4"/>
   </g>
   <g id="patch_118">
    <path d="M 253.395715 273.312 
L 255.01488 273.312 
L 255.01488 135.883268 
L 253.395715 135.883268 
z
" clip-path="url(#pc5f498a75d)" style="fill: #1f77b4"/>
   </g>
   <g id="patch_119">
    <path d="M 255.01488 273.312 
L 256.634044 273.312 
L 256.634044 143.022423 
L 255.01488 143.022423 
z
" clip-path="url(#pc5f498a75d)" style="fill: #1f77b4"/>
   </g>
   <g id="patch_120">
    <path d="M 256.634044 273.312 
L 258.253208 273.312 
L 258.253208 121.010028 
L 256.634044 121.010028 
z
" clip-path="url(#pc5f498a75d)" style="fill: #1f77b4"/>
   </g>
   <g id="patch_121">
    <path d="M 258.253208 273.312 
L 259.872373 273.312 
L 259.872373 122.199887 
L 258.253208 122.199887 
z
" clip-path="url(#pc5f498a75d)" style="fill: #1f77b4"/>
   </g>
   <g id="patch_122">
    <path d="M 259.872373 273.312 
L 261.491537 273.312 
L 261.491537 130.528901 
L 259.872373 130.528901 
z
" clip-path="url(#pc5f498a75d)" style="fill: #1f77b4"/>
   </g>
   <g id="patch_123">
    <path d="M 261.491537 273.312 
L 263.110702 273.312 
L 263.110702 132.90862 
L 261.491537 132.90862 
z
" clip-path="url(#pc5f498a75d)" style="fill: #1f77b4"/>
   </g>
   <g id="patch_124">
    <path d="M 263.110702 273.312 
L 264.729866 273.312 
L 264.729866 122.199887 
L 263.110702 122.199887 
z
" clip-path="url(#pc5f498a75d)" style="fill: #1f77b4"/>
   </g>
   <g id="patch_125">
    <path d="M 264.729866 273.312 
L 266.349031 273.312 
L 266.349031 98.402704 
L 264.729866 98.402704 
z
" clip-path="url(#pc5f498a75d)" style="fill: #1f77b4"/>
   </g>
   <g id="patch_126">
    <path d="M 266.349031 273.312 
L 267.968195 273.312 
L 267.968195 141.832563 
L 266.349031 141.832563 
z
" clip-path="url(#pc5f498a75d)" style="fill: #1f77b4"/>
   </g>
   <g id="patch_127">
    <path d="M 267.968195 273.312 
L 269.58736 273.312 
L 269.58736 138.262986 
L 267.968195 138.262986 
z
" clip-path="url(#pc5f498a75d)" style="fill: #1f77b4"/>
   </g>
   <g id="patch_128">
    <path d="M 269.58736 273.312 
L 271.206524 273.312 
L 271.206524 122.794817 
L 269.58736 122.794817 
z
" clip-path="url(#pc5f498a75d)" style="fill: #1f77b4"/>
   </g>
   <g id="patch_129">
    <path d="M 271.206524 273.312 
L 272.825688 273.312 
L 272.825688 121.010028 
L 271.206524 121.010028 
z
" clip-path="url(#pc5f498a75d)" style="fill: #1f77b4"/>
   </g>
   <g id="patch_130">
    <path d="M 272.825688 273.312 
L 274.444853 273.312 
L 274.444853 126.364394 
L 272.825688 126.364394 
z
" clip-path="url(#pc5f498a75d)" style="fill: #1f77b4"/>
   </g>
   <g id="patch_131">
    <path d="M 274.444853 273.312 
L 276.064017 273.312 
L 276.064017 113.870873 
L 274.444853 113.870873 
z
" clip-path="url(#pc5f498a75d)" style="fill: #1f77b4"/>
   </g>
   <g id="patch_132">
    <path d="M 276.064017 273.312 
L 277.683182 273.312 
L 277.683182 126.364394 
L 276.064017 126.364394 
z
" clip-path="url(#pc5f498a75d)" style="fill: #1f77b4"/>
   </g>
   <g id="patch_133">
    <path d="M 277.683182 273.312 
L 279.302346 273.312 
L 279.302346 126.959324 
L 277.683182 126.959324 
z
" clip-path="url(#pc5f498a75d)" style="fill: #1f77b4"/>
   </g>
   <g id="patch_134">
    <path d="M 279.302346 273.312 
L 280.921511 273.312 
L 280.921511 109.111437 
L 279.302346 109.111437 
z
" clip-path="url(#pc5f498a75d)" style="fill: #1f77b4"/>
   </g>
   <g id="patch_135">
    <path d="M 280.921511 273.312 
L 282.540675 273.312 
L 282.540675 126.364394 
L 280.921511 126.364394 
z
" clip-path="url(#pc5f498a75d)" style="fill: #1f77b4"/>
   </g>
   <g id="patch_136">
    <path d="M 282.540675 273.312 
L 284.15984 273.312 
L 284.15984 123.389746 
L 282.540675 123.389746 
z
" clip-path="url(#pc5f498a75d)" style="fill: #1f77b4"/>
   </g>
   <g id="patch_137">
    <path d="M 284.15984 273.312 
L 285.779004 273.312 
L 285.779004 100.782423 
L 284.15984 100.782423 
z
" clip-path="url(#pc5f498a75d)" style="fill: #1f77b4"/>
   </g>
   <g id="patch_138">
    <path d="M 285.779004 273.312 
L 287.398168 273.312 
L 287.398168 118.03538 
L 285.779004 118.03538 
z
" clip-path="url(#pc5f498a75d)" style="fill: #1f77b4"/>
   </g>
   <g id="patch_139">
    <path d="M 287.398168 273.312 
L 289.017333 273.312 
L 289.017333 115.060732 
L 287.398168 115.060732 
z
" clip-path="url(#pc5f498a75d)" style="fill: #1f77b4"/>
   </g>
   <g id="patch_140">
    <path d="M 289.017333 273.312 
L 290.636497 273.312 
L 290.636497 115.655662 
L 289.017333 115.655662 
z
" clip-path="url(#pc5f498a75d)" style="fill: #1f77b4"/>
   </g>
   <g id="patch_141">
    <path d="M 290.636497 273.312 
L 292.255662 273.312 
L 292.255662 96.022986 
L 290.636497 96.022986 
z
" clip-path="url(#pc5f498a75d)" style="fill: #1f77b4"/>
   </g>
   <g id="patch_142">
    <path d="M 292.255662 273.312 
L 293.874826 273.312 
L 293.874826 104.94693 
L 292.255662 104.94693 
z
" clip-path="url(#pc5f498a75d)" style="fill: #1f77b4"/>
   </g>
   <g id="patch_143">
    <path d="M 293.874826 273.312 
L 295.493991 273.312 
L 295.493991 104.352 
L 293.874826 104.352 
z
" clip-path="url(#pc5f498a75d)" style="fill: #1f77b4"/>
   </g>
   <g id="patch_144">
    <path d="M 295.493991 273.312 
L 297.113155 273.312 
L 297.113155 100.187493 
L 295.493991 100.187493 
z
" clip-path="url(#pc5f498a75d)" style="fill: #1f77b4"/>
   </g>
   <g id="patch_145">
    <path d="M 297.113155 273.312 
L 298.73232 273.312 
L 298.73232 124.579606 
L 297.113155 124.579606 
z
" clip-path="url(#pc5f498a75d)" style="fill: #1f77b4"/>
   </g>
   <g id="patch_146">
    <path d="M 298.73232 273.312 
L 300.351484 273.312 
L 300.351484 106.136789 
L 298.73232 106.136789 
z
" clip-path="url(#pc5f498a75d)" style="fill: #1f77b4"/>
   </g>
   <g id="patch_147">
    <path d="M 300.351484 273.312 
L 301.970648 273.312 
L 301.970648 81.744676 
L 300.351484 81.744676 
z
" clip-path="url(#pc5f498a75d)" style="fill: #1f77b4"/>
   </g>
   <g id="patch_148">
    <path d="M 301.970648 273.312 
L 303.589813 273.312 
L 303.589813 90.66862 
L 301.970648 90.66862 
z
" clip-path="url(#pc5f498a75d)" style="fill: #1f77b4"/>
   </g>
   <g id="patch_149">
    <path d="M 303.589813 273.312 
L 305.208977 273.312 
L 305.208977 88.288901 
L 303.589813 88.288901 
z
" clip-path="url(#pc5f498a75d)" style="fill: #1f77b4"/>
   </g>
   <g id="patch_150">
    <path d="M 305.208977 273.312 
L 306.828142 273.312 
L 306.828142 91.858479 
L 305.208977 91.858479 
z
" clip-path="url(#pc5f498a75d)" style="fill: #1f77b4"/>
   </g>
   <g id="patch_151">
    <path d="M 306.828142 273.312 
L 308.447306 273.312 
L 308.447306 100.187493 
L 306.828142 100.187493 
z
" clip-path="url(#pc5f498a75d)" style="fill: #1f77b4"/>
   </g>
   <g id="patch_152">
    <path d="M 308.447306 273.312 
L 310.066471 273.312 
L 310.066471 105.541859 
L 308.447306 105.541859 
z
" clip-path="url(#pc5f498a75d)" style="fill: #1f77b4"/>
   </g>
   <g id="patch_153">
    <path d="M 310.066471 273.312 
L 311.685635 273.312 
L 311.685635 88.883831 
L 310.066471 88.883831 
z
" clip-path="url(#pc5f498a75d)" style="fill: #1f77b4"/>
   </g>
   <g id="patch_154">
    <path d="M 311.685635 273.312 
L 313.3048 273.312 
L 313.3048 91.263549 
L 311.685635 91.263549 
z
" clip-path="url(#pc5f498a75d)" style="fill: #1f77b4"/>
   </g>
   <g id="patch_155">
    <path d="M 313.3048 273.312 
L 314.923964 273.312 
L 314.923964 77.580169 
L 313.3048 77.580169 
z
" clip-path="url(#pc5f498a75d)" style="fill: #1f77b4"/>
   </g>
   <g id="patch_156">
    <path d="M 314.923964 273.312 
L 316.543128 273.312 
L 316.543128 81.149746 
L 314.923964 81.149746 
z
" clip-path="url(#pc5f498a75d)" style="fill: #1f77b4"/>
   </g>
   <g id="patch_157">
    <path d="M 316.543128 273.312 
L 318.162293 273.312 
L 318.162293 84.124394 
L 316.543128 84.124394 
z
" clip-path="url(#pc5f498a75d)" style="fill: #1f77b4"/>
   </g>
   <g id="patch_158">
    <path d="M 318.162293 273.312 
L 319.781457 273.312 
L 319.781457 111.491155 
L 318.162293 111.491155 
z
" clip-path="url(#pc5f498a75d)" style="fill: #1f77b4"/>
   </g>
   <g id="patch_159">
    <path d="M 319.781457 273.312 
L 321.400622 273.312 
L 321.400622 69.846085 
L 319.781457 69.846085 
z
" clip-path="url(#pc5f498a75d)" style="fill: #1f77b4"/>
   </g>
   <g id="patch_160">
    <path d="M 321.400622 273.312 
L 323.019786 273.312 
L 323.019786 77.580169 
L 321.400622 77.580169 
z
" clip-path="url(#pc5f498a75d)" style="fill: #1f77b4"/>
   </g>
   <g id="patch_161">
    <path d="M 323.019786 273.312 
L 324.638951 273.312 
L 324.638951 79.959887 
L 323.019786 79.959887 
z
" clip-path="url(#pc5f498a75d)" style="fill: #1f77b4"/>
   </g>
   <g id="patch_162">
    <path d="M 324.638951 273.312 
L 326.258115 273.312 
L 326.258115 87.693972 
L 324.638951 87.693972 
z
" clip-path="url(#pc5f498a75d)" style="fill: #1f77b4"/>
   </g>
   <g id="patch_163">
    <path d="M 326.258115 273.312 
L 327.87728 273.312 
L 327.87728 88.288901 
L 326.258115 88.288901 
z
" clip-path="url(#pc5f498a75d)" style="fill: #1f77b4"/>
   </g>
   <g id="patch_164">
    <path d="M 327.87728 273.312 
L 329.496444 273.312 
L 329.496444 110.896225 
L 327.87728 110.896225 
z
" clip-path="url(#pc5f498a75d)" style="fill: #1f77b4"/>
   </g>
   <g id="patch_165">
    <path d="M 329.496444 273.312 
L 331.115608 273.312 
L 331.115608 81.149746 
L 329.496444 81.149746 
z
" clip-path="url(#pc5f498a75d)" style="fill: #1f77b4"/>
   </g>
   <g id="patch_166">
    <path d="M 331.115608 273.312 
L 332.734773 273.312 
L 332.734773 78.770028 
L 331.115608 78.770028 
z
" clip-path="url(#pc5f498a75d)" style="fill: #1f77b4"/>
   </g>
   <g id="patch_167">
    <path d="M 332.734773 273.312 
L 334.353937 273.312 
L 334.353937 74.010592 
L 332.734773 74.010592 
z
" clip-path="url(#pc5f498a75d)" style="fill: #1f77b4"/>
   </g>
   <g id="patch_168">
    <path d="M 334.353937 273.312 
L 335.973102 273.312 
L 335.973102 68.061296 
L 334.353937 68.061296 
z
" clip-path="url(#pc5f498a75d)" style="fill: #1f77b4"/>
   </g>
   <g id="patch_169">
    <path d="M 335.973102 273.312 
L 337.592266 273.312 
L 337.592266 72.225803 
L 335.973102 72.225803 
z
" clip-path="url(#pc5f498a75d)" style="fill: #1f77b4"/>
   </g>
   <g id="patch_170">
    <path d="M 337.592266 273.312 
L 339.211431 273.312 
L 339.211431 57.352563 
L 337.592266 57.352563 
z
" clip-path="url(#pc5f498a75d)" style="fill: #1f77b4"/>
   </g>
   <g id="patch_171">
    <path d="M 339.211431 273.312 
L 340.830595 273.312 
L 340.830595 63.896789 
L 339.211431 63.896789 
z
" clip-path="url(#pc5f498a75d)" style="fill: #1f77b4"/>
   </g>
   <g id="patch_172">
    <path d="M 340.830595 273.312 
L 342.44976 273.312 
L 342.44976 59.732282 
L 340.830595 59.732282 
z
" clip-path="url(#pc5f498a75d)" style="fill: #1f77b4"/>
   </g>
   <g id="patch_173">
    <path d="M 342.44976 273.312 
L 344.068924 273.312 
L 344.068924 77.580169 
L 342.44976 77.580169 
z
" clip-path="url(#pc5f498a75d)" style="fill: #1f77b4"/>
   </g>
   <g id="patch_174">
    <path d="M 344.068924 273.312 
L 345.688089 273.312 
L 345.688089 70.441014 
L 344.068924 70.441014 
z
" clip-path="url(#pc5f498a75d)" style="fill: #1f77b4"/>
   </g>
   <g id="patch_175">
    <path d="M 345.688089 273.312 
L 347.307253 273.312 
L 347.307253 73.415662 
L 345.688089 73.415662 
z
" clip-path="url(#pc5f498a75d)" style="fill: #1f77b4"/>
   </g>
   <g id="patch_176">
    <path d="M 347.307253 273.312 
L 348.926417 273.312 
L 348.926417 68.656225 
L 347.307253 68.656225 
z
" clip-path="url(#pc5f498a75d)" style="fill: #1f77b4"/>
   </g>
   <g id="patch_177">
    <path d="M 348.926417 273.312 
L 350.545582 273.312 
L 350.545582 49.023549 
L 348.926417 49.023549 
z
" clip-path="url(#pc5f498a75d)" style="fill: #1f77b4"/>
   </g>
   <g id="patch_178">
    <path d="M 350.545582 273.312 
L 352.164746 273.312 
L 352.164746 70.441014 
L 350.545582 70.441014 
z
" clip-path="url(#pc5f498a75d)" style="fill: #1f77b4"/>
   </g>
   <g id="patch_179">
    <path d="M 352.164746 273.312 
L 353.783911 273.312 
L 353.783911 63.301859 
L 352.164746 63.301859 
z
" clip-path="url(#pc5f498a75d)" style="fill: #1f77b4"/>
   </g>
   <g id="patch_180">
    <path d="M 353.783911 273.312 
L 355.403075 273.312 
L 355.403075 73.415662 
L 353.783911 73.415662 
z
" clip-path="url(#pc5f498a75d)" style="fill: #1f77b4"/>
   </g>
   <g id="patch_181">
    <path d="M 355.403075 273.312 
L 357.02224 273.312 
L 357.02224 72.820732 
L 355.403075 72.820732 
z
" clip-path="url(#pc5f498a75d)" style="fill: #1f77b4"/>
   </g>
   <g id="patch_182">
    <path d="M 357.02224 273.312 
L 358.641404 273.312 
L 358.641404 71.035944 
L 357.02224 71.035944 
z
" clip-path="url(#pc5f498a75d)" style="fill: #1f77b4"/>
   </g>
   <g id="patch_183">
    <path d="M 358.641404 273.312 
L 360.260569 273.312 
L 360.260569 65.681577 
L 358.641404 65.681577 
z
" clip-path="url(#pc5f498a75d)" style="fill: #1f77b4"/>
   </g>
   <g id="patch_184">
    <path d="M 360.260569 273.312 
L 361.879733 273.312 
L 361.879733 59.732282 
L 360.260569 59.732282 
z
" clip-path="url(#pc5f498a75d)" style="fill: #1f77b4"/>
   </g>
   <g id="patch_185">
    <path d="M 361.879733 273.312 
L 363.498897 273.312 
L 363.498897 73.415662 
L 361.879733 73.415662 
z
" clip-path="url(#pc5f498a75d)" style="fill: #1f77b4"/>
   </g>
   <g id="patch_186">
    <path d="M 363.498897 273.312 
L 365.118062 273.312 
L 365.118062 68.061296 
L 363.498897 68.061296 
z
" clip-path="url(#pc5f498a75d)" style="fill: #1f77b4"/>
   </g>
   <g id="patch_187">
    <path d="M 365.118062 273.312 
L 366.737226 273.312 
L 366.737226 50.808338 
L 365.118062 50.808338 
z
" clip-path="url(#pc5f498a75d)" style="fill: #1f77b4"/>
   </g>
   <g id="patch_188">
    <path d="M 366.737226 273.312 
L 368.356391 273.312 
L 368.356391 49.023549 
L 366.737226 49.023549 
z
" clip-path="url(#pc5f498a75d)" style="fill: #1f77b4"/>
   </g>
   <g id="patch_189">
    <path d="M 368.356391 273.312 
L 369.975555 273.312 
L 369.975555 51.403268 
L 368.356391 51.403268 
z
" clip-path="url(#pc5f498a75d)" style="fill: #1f77b4"/>
   </g>
   <g id="patch_190">
    <path d="M 369.975555 273.312 
L 371.59472 273.312 
L 371.59472 43.074254 
L 369.975555 43.074254 
z
" clip-path="url(#pc5f498a75d)" style="fill: #1f77b4"/>
   </g>
   <g id="patch_191">
    <path d="M 371.59472 273.312 
L 373.213884 273.312 
L 373.213884 47.83369 
L 371.59472 47.83369 
z
" clip-path="url(#pc5f498a75d)" style="fill: #1f77b4"/>
   </g>
   <g id="patch_192">
    <path d="M 373.213884 273.312 
L 374.833049 273.312 
L 374.833049 60.922141 
L 373.213884 60.922141 
z
" clip-path="url(#pc5f498a75d)" style="fill: #1f77b4"/>
   </g>
   <g id="patch_193">
    <path d="M 374.833049 273.312 
L 376.452213 273.312 
L 376.452213 54.972845 
L 374.833049 54.972845 
z
" clip-path="url(#pc5f498a75d)" style="fill: #1f77b4"/>
   </g>
   <g id="patch_194">
    <path d="M 376.452213 273.312 
L 378.071377 273.312 
L 378.071377 53.782986 
L 376.452213 53.782986 
z
" clip-path="url(#pc5f498a75d)" style="fill: #1f77b4"/>
   </g>
   <g id="patch_195">
    <path d="M 378.071377 273.312 
L 379.690542 273.312 
L 379.690542 43.074254 
L 378.071377 43.074254 
z
" clip-path="url(#pc5f498a75d)" style="fill: #1f77b4"/>
   </g>
   <g id="patch_196">
    <path d="M 379.690542 273.312 
L 381.309706 273.312 
L 381.309706 57.947493 
L 379.690542 57.947493 
z
" clip-path="url(#pc5f498a75d)" style="fill: #1f77b4"/>
   </g>
   <g id="patch_197">
    <path d="M 381.309706 273.312 
L 382.928871 273.312 
L 382.928871 49.023549 
L 381.309706 49.023549 
z
" clip-path="url(#pc5f498a75d)" style="fill: #1f77b4"/>
   </g>
   <g id="patch_198">
    <path d="M 382.928871 273.312 
L 384.548035 273.312 
L 384.548035 33.55538 
L 382.928871 33.55538 
z
" clip-path="url(#pc5f498a75d)" style="fill: #1f77b4"/>
   </g>
   <g id="patch_199">
    <path d="M 384.548035 273.312 
L 386.1672 273.312 
L 386.1672 39.504676 
L 384.548035 39.504676 
z
" clip-path="url(#pc5f498a75d)" style="fill: #1f77b4"/>
   </g>
   <g id="patch_200">
    <path d="M 386.1672 273.312 
L 387.786364 273.312 
L 387.786364 30.580732 
L 386.1672 30.580732 
z
" clip-path="url(#pc5f498a75d)" style="fill: #1f77b4"/>
   </g>
   <g id="patch_201">
    <path d="M 387.786364 273.312 
L 389.405529 273.312 
L 389.405529 19.872 
L 387.786364 19.872 
z
" clip-path="url(#pc5f498a75d)" style="fill: #1f77b4"/>
   </g>
   <g id="patch_202">
    <path d="M 389.405529 273.312 
L 391.024693 273.312 
L 391.024693 23.441577 
L 389.405529 23.441577 
z
" clip-path="url(#pc5f498a75d)" style="fill: #1f77b4"/>
   </g>
   <g id="matplotlib.axis_1">
    <g id="xtick_1">
     <g id="line2d_1">
      <defs>
       <path id="m8a7cbc756b" d="M 0 0 
L 0 3.5 
" style="stroke: #000000; stroke-width: 0.8"/>
      </defs>
      <g>
       <use xlink:href="#m8a7cbc756b" x="66.376477" y="273.312" style="stroke: #000000; stroke-width: 0.8"/>
      </g>
     </g>
     <g id="text_1">
      <!-- 0.0 -->
      <g transform="translate(58.424915 287.910437)scale(0.1 -0.1)">
       <defs>
        <path id="DejaVuSans-30" d="M 2034 4250 
Q 1547 4250 1301 3770 
Q 1056 3291 1056 2328 
Q 1056 1369 1301 889 
Q 1547 409 2034 409 
Q 2525 409 2770 889 
Q 3016 1369 3016 2328 
Q 3016 3291 2770 3770 
Q 2525 4250 2034 4250 
z
M 2034 4750 
Q 2819 4750 3233 4129 
Q 3647 3509 3647 2328 
Q 3647 1150 3233 529 
Q 2819 -91 2034 -91 
Q 1250 -91 836 529 
Q 422 1150 422 2328 
Q 422 3509 836 4129 
Q 1250 4750 2034 4750 
z
" transform="scale(0.015625)"/>
        <path id="DejaVuSans-2e" d="M 684 794 
L 1344 794 
L 1344 0 
L 684 0 
L 684 794 
z
" transform="scale(0.015625)"/>
       </defs>
       <use xlink:href="#DejaVuSans-30"/>
       <use xlink:href="#DejaVuSans-2e" x="63.623047"/>
       <use xlink:href="#DejaVuSans-30" x="95.410156"/>
      </g>
     </g>
    </g>
    <g id="xtick_2">
     <g id="line2d_2">
      <g>
       <use xlink:href="#m8a7cbc756b" x="131.307386" y="273.312" style="stroke: #000000; stroke-width: 0.8"/>
      </g>
     </g>
     <g id="text_2">
      <!-- 0.2 -->
      <g transform="translate(123.355824 287.910437)scale(0.1 -0.1)">
       <defs>
        <path id="DejaVuSans-32" d="M 1228 531 
L 3431 531 
L 3431 0 
L 469 0 
L 469 531 
Q 828 903 1448 1529 
Q 2069 2156 2228 2338 
Q 2531 2678 2651 2914 
Q 2772 3150 2772 3378 
Q 2772 3750 2511 3984 
Q 2250 4219 1831 4219 
Q 1534 4219 1204 4116 
Q 875 4013 500 3803 
L 500 4441 
Q 881 4594 1212 4672 
Q 1544 4750 1819 4750 
Q 2544 4750 2975 4387 
Q 3406 4025 3406 3419 
Q 3406 3131 3298 2873 
Q 3191 2616 2906 2266 
Q 2828 2175 2409 1742 
Q 1991 1309 1228 531 
z
" transform="scale(0.015625)"/>
       </defs>
       <use xlink:href="#DejaVuSans-30"/>
       <use xlink:href="#DejaVuSans-2e" x="63.623047"/>
       <use xlink:href="#DejaVuSans-32" x="95.410156"/>
      </g>
     </g>
    </g>
    <g id="xtick_3">
     <g id="line2d_3">
      <g>
       <use xlink:href="#m8a7cbc756b" x="196.238295" y="273.312" style="stroke: #000000; stroke-width: 0.8"/>
      </g>
     </g>
     <g id="text_3">
      <!-- 0.4 -->
      <g transform="translate(188.286733 287.910437)scale(0.1 -0.1)">
       <defs>
        <path id="DejaVuSans-34" d="M 2419 4116 
L 825 1625 
L 2419 1625 
L 2419 4116 
z
M 2253 4666 
L 3047 4666 
L 3047 1625 
L 3713 1625 
L 3713 1100 
L 3047 1100 
L 3047 0 
L 2419 0 
L 2419 1100 
L 313 1100 
L 313 1709 
L 2253 4666 
z
" transform="scale(0.015625)"/>
       </defs>
       <use xlink:href="#DejaVuSans-30"/>
       <use xlink:href="#DejaVuSans-2e" x="63.623047"/>
       <use xlink:href="#DejaVuSans-34" x="95.410156"/>
      </g>
     </g>
    </g>
    <g id="xtick_4">
     <g id="line2d_4">
      <g>
       <use xlink:href="#m8a7cbc756b" x="261.169205" y="273.312" style="stroke: #000000; stroke-width: 0.8"/>
      </g>
     </g>
     <g id="text_4">
      <!-- 0.6 -->
      <g transform="translate(253.217642 287.910437)scale(0.1 -0.1)">
       <defs>
        <path id="DejaVuSans-36" d="M 2113 2584 
Q 1688 2584 1439 2293 
Q 1191 2003 1191 1497 
Q 1191 994 1439 701 
Q 1688 409 2113 409 
Q 2538 409 2786 701 
Q 3034 994 3034 1497 
Q 3034 2003 2786 2293 
Q 2538 2584 2113 2584 
z
M 3366 4563 
L 3366 3988 
Q 3128 4100 2886 4159 
Q 2644 4219 2406 4219 
Q 1781 4219 1451 3797 
Q 1122 3375 1075 2522 
Q 1259 2794 1537 2939 
Q 1816 3084 2150 3084 
Q 2853 3084 3261 2657 
Q 3669 2231 3669 1497 
Q 3669 778 3244 343 
Q 2819 -91 2113 -91 
Q 1303 -91 875 529 
Q 447 1150 447 2328 
Q 447 3434 972 4092 
Q 1497 4750 2381 4750 
Q 2619 4750 2861 4703 
Q 3103 4656 3366 4563 
z
" transform="scale(0.015625)"/>
       </defs>
       <use xlink:href="#DejaVuSans-30"/>
       <use xlink:href="#DejaVuSans-2e" x="63.623047"/>
       <use xlink:href="#DejaVuSans-36" x="95.410156"/>
      </g>
     </g>
    </g>
    <g id="xtick_5">
     <g id="line2d_5">
      <g>
       <use xlink:href="#m8a7cbc756b" x="326.100114" y="273.312" style="stroke: #000000; stroke-width: 0.8"/>
      </g>
     </g>
     <g id="text_5">
      <!-- 0.8 -->
      <g transform="translate(318.148551 287.910437)scale(0.1 -0.1)">
       <defs>
        <path id="DejaVuSans-38" d="M 2034 2216 
Q 1584 2216 1326 1975 
Q 1069 1734 1069 1313 
Q 1069 891 1326 650 
Q 1584 409 2034 409 
Q 2484 409 2743 651 
Q 3003 894 3003 1313 
Q 3003 1734 2745 1975 
Q 2488 2216 2034 2216 
z
M 1403 2484 
Q 997 2584 770 2862 
Q 544 3141 544 3541 
Q 544 4100 942 4425 
Q 1341 4750 2034 4750 
Q 2731 4750 3128 4425 
Q 3525 4100 3525 3541 
Q 3525 3141 3298 2862 
Q 3072 2584 2669 2484 
Q 3125 2378 3379 2068 
Q 3634 1759 3634 1313 
Q 3634 634 3220 271 
Q 2806 -91 2034 -91 
Q 1263 -91 848 271 
Q 434 634 434 1313 
Q 434 1759 690 2068 
Q 947 2378 1403 2484 
z
M 1172 3481 
Q 1172 3119 1398 2916 
Q 1625 2713 2034 2713 
Q 2441 2713 2670 2916 
Q 2900 3119 2900 3481 
Q 2900 3844 2670 4047 
Q 2441 4250 2034 4250 
Q 1625 4250 1398 4047 
Q 1172 3844 1172 3481 
z
" transform="scale(0.015625)"/>
       </defs>
       <use xlink:href="#DejaVuSans-30"/>
       <use xlink:href="#DejaVuSans-2e" x="63.623047"/>
       <use xlink:href="#DejaVuSans-38" x="95.410156"/>
      </g>
     </g>
    </g>
    <g id="xtick_6">
     <g id="line2d_6">
      <g>
       <use xlink:href="#m8a7cbc756b" x="391.031023" y="273.312" style="stroke: #000000; stroke-width: 0.8"/>
      </g>
     </g>
     <g id="text_6">
      <!-- 1.0 -->
      <g transform="translate(383.07946 287.910437)scale(0.1 -0.1)">
       <defs>
        <path id="DejaVuSans-31" d="M 794 531 
L 1825 531 
L 1825 4091 
L 703 3866 
L 703 4441 
L 1819 4666 
L 2450 4666 
L 2450 531 
L 3481 531 
L 3481 0 
L 794 0 
L 794 531 
z
" transform="scale(0.015625)"/>
       </defs>
       <use xlink:href="#DejaVuSans-31"/>
       <use xlink:href="#DejaVuSans-2e" x="63.623047"/>
       <use xlink:href="#DejaVuSans-30" x="95.410156"/>
      </g>
     </g>
    </g>
    <g id="text_7">
     <!-- Propagation direction -->
     <g transform="translate(175.221719 301.588562)scale(0.1 -0.1)">
      <defs>
       <path id="DejaVuSans-50" d="M 1259 4147 
L 1259 2394 
L 2053 2394 
Q 2494 2394 2734 2622 
Q 2975 2850 2975 3272 
Q 2975 3691 2734 3919 
Q 2494 4147 2053 4147 
L 1259 4147 
z
M 628 4666 
L 2053 4666 
Q 2838 4666 3239 4311 
Q 3641 3956 3641 3272 
Q 3641 2581 3239 2228 
Q 2838 1875 2053 1875 
L 1259 1875 
L 1259 0 
L 628 0 
L 628 4666 
z
" transform="scale(0.015625)"/>
       <path id="DejaVuSans-72" d="M 2631 2963 
Q 2534 3019 2420 3045 
Q 2306 3072 2169 3072 
Q 1681 3072 1420 2755 
Q 1159 2438 1159 1844 
L 1159 0 
L 581 0 
L 581 3500 
L 1159 3500 
L 1159 2956 
Q 1341 3275 1631 3429 
Q 1922 3584 2338 3584 
Q 2397 3584 2469 3576 
Q 2541 3569 2628 3553 
L 2631 2963 
z
" transform="scale(0.015625)"/>
       <path id="DejaVuSans-6f" d="M 1959 3097 
Q 1497 3097 1228 2736 
Q 959 2375 959 1747 
Q 959 1119 1226 758 
Q 1494 397 1959 397 
Q 2419 397 2687 759 
Q 2956 1122 2956 1747 
Q 2956 2369 2687 2733 
Q 2419 3097 1959 3097 
z
M 1959 3584 
Q 2709 3584 3137 3096 
Q 3566 2609 3566 1747 
Q 3566 888 3137 398 
Q 2709 -91 1959 -91 
Q 1206 -91 779 398 
Q 353 888 353 1747 
Q 353 2609 779 3096 
Q 1206 3584 1959 3584 
z
" transform="scale(0.015625)"/>
       <path id="DejaVuSans-70" d="M 1159 525 
L 1159 -1331 
L 581 -1331 
L 581 3500 
L 1159 3500 
L 1159 2969 
Q 1341 3281 1617 3432 
Q 1894 3584 2278 3584 
Q 2916 3584 3314 3078 
Q 3713 2572 3713 1747 
Q 3713 922 3314 415 
Q 2916 -91 2278 -91 
Q 1894 -91 1617 61 
Q 1341 213 1159 525 
z
M 3116 1747 
Q 3116 2381 2855 2742 
Q 2594 3103 2138 3103 
Q 1681 3103 1420 2742 
Q 1159 2381 1159 1747 
Q 1159 1113 1420 752 
Q 1681 391 2138 391 
Q 2594 391 2855 752 
Q 3116 1113 3116 1747 
z
" transform="scale(0.015625)"/>
       <path id="DejaVuSans-61" d="M 2194 1759 
Q 1497 1759 1228 1600 
Q 959 1441 959 1056 
Q 959 750 1161 570 
Q 1363 391 1709 391 
Q 2188 391 2477 730 
Q 2766 1069 2766 1631 
L 2766 1759 
L 2194 1759 
z
M 3341 1997 
L 3341 0 
L 2766 0 
L 2766 531 
Q 2569 213 2275 61 
Q 1981 -91 1556 -91 
Q 1019 -91 701 211 
Q 384 513 384 1019 
Q 384 1609 779 1909 
Q 1175 2209 1959 2209 
L 2766 2209 
L 2766 2266 
Q 2766 2663 2505 2880 
Q 2244 3097 1772 3097 
Q 1472 3097 1187 3025 
Q 903 2953 641 2809 
L 641 3341 
Q 956 3463 1253 3523 
Q 1550 3584 1831 3584 
Q 2591 3584 2966 3190 
Q 3341 2797 3341 1997 
z
" transform="scale(0.015625)"/>
       <path id="DejaVuSans-67" d="M 2906 1791 
Q 2906 2416 2648 2759 
Q 2391 3103 1925 3103 
Q 1463 3103 1205 2759 
Q 947 2416 947 1791 
Q 947 1169 1205 825 
Q 1463 481 1925 481 
Q 2391 481 2648 825 
Q 2906 1169 2906 1791 
z
M 3481 434 
Q 3481 -459 3084 -895 
Q 2688 -1331 1869 -1331 
Q 1566 -1331 1297 -1286 
Q 1028 -1241 775 -1147 
L 775 -588 
Q 1028 -725 1275 -790 
Q 1522 -856 1778 -856 
Q 2344 -856 2625 -561 
Q 2906 -266 2906 331 
L 2906 616 
Q 2728 306 2450 153 
Q 2172 0 1784 0 
Q 1141 0 747 490 
Q 353 981 353 1791 
Q 353 2603 747 3093 
Q 1141 3584 1784 3584 
Q 2172 3584 2450 3431 
Q 2728 3278 2906 2969 
L 2906 3500 
L 3481 3500 
L 3481 434 
z
" transform="scale(0.015625)"/>
       <path id="DejaVuSans-74" d="M 1172 4494 
L 1172 3500 
L 2356 3500 
L 2356 3053 
L 1172 3053 
L 1172 1153 
Q 1172 725 1289 603 
Q 1406 481 1766 481 
L 2356 481 
L 2356 0 
L 1766 0 
Q 1100 0 847 248 
Q 594 497 594 1153 
L 594 3053 
L 172 3053 
L 172 3500 
L 594 3500 
L 594 4494 
L 1172 4494 
z
" transform="scale(0.015625)"/>
       <path id="DejaVuSans-69" d="M 603 3500 
L 1178 3500 
L 1178 0 
L 603 0 
L 603 3500 
z
M 603 4863 
L 1178 4863 
L 1178 4134 
L 603 4134 
L 603 4863 
z
" transform="scale(0.015625)"/>
       <path id="DejaVuSans-6e" d="M 3513 2113 
L 3513 0 
L 2938 0 
L 2938 2094 
Q 2938 2591 2744 2837 
Q 2550 3084 2163 3084 
Q 1697 3084 1428 2787 
Q 1159 2491 1159 1978 
L 1159 0 
L 581 0 
L 581 3500 
L 1159 3500 
L 1159 2956 
Q 1366 3272 1645 3428 
Q 1925 3584 2291 3584 
Q 2894 3584 3203 3211 
Q 3513 2838 3513 2113 
z
" transform="scale(0.015625)"/>
       <path id="DejaVuSans-20" transform="scale(0.015625)"/>
       <path id="DejaVuSans-64" d="M 2906 2969 
L 2906 4863 
L 3481 4863 
L 3481 0 
L 2906 0 
L 2906 525 
Q 2725 213 2448 61 
Q 2172 -91 1784 -91 
Q 1150 -91 751 415 
Q 353 922 353 1747 
Q 353 2572 751 3078 
Q 1150 3584 1784 3584 
Q 2172 3584 2448 3432 
Q 2725 3281 2906 2969 
z
M 947 1747 
Q 947 1113 1208 752 
Q 1469 391 1925 391 
Q 2381 391 2643 752 
Q 2906 1113 2906 1747 
Q 2906 2381 2643 2742 
Q 2381 3103 1925 3103 
Q 1469 3103 1208 2742 
Q 947 2381 947 1747 
z
" transform="scale(0.015625)"/>
       <path id="DejaVuSans-65" d="M 3597 1894 
L 3597 1613 
L 953 1613 
Q 991 1019 1311 708 
Q 1631 397 2203 397 
Q 2534 397 2845 478 
Q 3156 559 3463 722 
L 3463 178 
Q 3153 47 2828 -22 
Q 2503 -91 2169 -91 
Q 1331 -91 842 396 
Q 353 884 353 1716 
Q 353 2575 817 3079 
Q 1281 3584 2069 3584 
Q 2775 3584 3186 3129 
Q 3597 2675 3597 1894 
z
M 3022 2063 
Q 3016 2534 2758 2815 
Q 2500 3097 2075 3097 
Q 1594 3097 1305 2825 
Q 1016 2553 972 2059 
L 3022 2063 
z
" transform="scale(0.015625)"/>
       <path id="DejaVuSans-63" d="M 3122 3366 
L 3122 2828 
Q 2878 2963 2633 3030 
Q 2388 3097 2138 3097 
Q 1578 3097 1268 2742 
Q 959 2388 959 1747 
Q 959 1106 1268 751 
Q 1578 397 2138 397 
Q 2388 397 2633 464 
Q 2878 531 3122 666 
L 3122 134 
Q 2881 22 2623 -34 
Q 2366 -91 2075 -91 
Q 1284 -91 818 406 
Q 353 903 353 1747 
Q 353 2603 823 3093 
Q 1294 3584 2113 3584 
Q 2378 3584 2631 3529 
Q 2884 3475 3122 3366 
z
" transform="scale(0.015625)"/>
      </defs>
      <use xlink:href="#DejaVuSans-50"/>
      <use xlink:href="#DejaVuSans-72" x="58.552734"/>
      <use xlink:href="#DejaVuSans-6f" x="97.416016"/>
      <use xlink:href="#DejaVuSans-70" x="158.597656"/>
      <use xlink:href="#DejaVuSans-61" x="222.074219"/>
      <use xlink:href="#DejaVuSans-67" x="283.353516"/>
      <use xlink:href="#DejaVuSans-61" x="346.830078"/>
      <use xlink:href="#DejaVuSans-74" x="408.109375"/>
      <use xlink:href="#DejaVuSans-69" x="447.318359"/>
      <use xlink:href="#DejaVuSans-6f" x="475.101562"/>
      <use xlink:href="#DejaVuSans-6e" x="536.283203"/>
      <use xlink:href="#DejaVuSans-20" x="599.662109"/>
      <use xlink:href="#DejaVuSans-64" x="631.449219"/>
      <use xlink:href="#DejaVuSans-69" x="694.925781"/>
      <use xlink:href="#DejaVuSans-72" x="722.708984"/>
      <use xlink:href="#DejaVuSans-65" x="761.572266"/>
      <use xlink:href="#DejaVuSans-63" x="823.095703"/>
      <use xlink:href="#DejaVuSans-74" x="878.076172"/>
      <use xlink:href="#DejaVuSans-69" x="917.285156"/>
      <use xlink:href="#DejaVuSans-6f" x="945.068359"/>
      <use xlink:href="#DejaVuSans-6e" x="1006.25"/>
     </g>
    </g>
   </g>
   <g id="matplotlib.axis_2">
    <g id="ytick_1">
     <g id="line2d_7">
      <defs>
       <path id="m22c03023b4" d="M 0 0 
L -3.5 0 
" style="stroke: #000000; stroke-width: 0.8"/>
      </defs>
      <g>
       <use xlink:href="#m22c03023b4" x="50.14375" y="273.312" style="stroke: #000000; stroke-width: 0.8"/>
      </g>
     </g>
     <g id="text_8">
      <!-- 0.00 -->
      <g transform="translate(20.878125 277.111219)scale(0.1 -0.1)">
       <use xlink:href="#DejaVuSans-30"/>
       <use xlink:href="#DejaVuSans-2e" x="63.623047"/>
       <use xlink:href="#DejaVuSans-30" x="95.410156"/>
       <use xlink:href="#DejaVuSans-30" x="159.033203"/>
      </g>
     </g>
    </g>
    <g id="ytick_2">
     <g id="line2d_8">
      <g>
       <use xlink:href="#m22c03023b4" x="50.14375" y="243.640805" style="stroke: #000000; stroke-width: 0.8"/>
      </g>
     </g>
     <g id="text_9">
      <!-- 0.25 -->
      <g transform="translate(20.878125 247.440024)scale(0.1 -0.1)">
       <defs>
        <path id="DejaVuSans-35" d="M 691 4666 
L 3169 4666 
L 3169 4134 
L 1269 4134 
L 1269 2991 
Q 1406 3038 1543 3061 
Q 1681 3084 1819 3084 
Q 2600 3084 3056 2656 
Q 3513 2228 3513 1497 
Q 3513 744 3044 326 
Q 2575 -91 1722 -91 
Q 1428 -91 1123 -41 
Q 819 9 494 109 
L 494 744 
Q 775 591 1075 516 
Q 1375 441 1709 441 
Q 2250 441 2565 725 
Q 2881 1009 2881 1497 
Q 2881 1984 2565 2268 
Q 2250 2553 1709 2553 
Q 1456 2553 1204 2497 
Q 953 2441 691 2322 
L 691 4666 
z
" transform="scale(0.015625)"/>
       </defs>
       <use xlink:href="#DejaVuSans-30"/>
       <use xlink:href="#DejaVuSans-2e" x="63.623047"/>
       <use xlink:href="#DejaVuSans-32" x="95.410156"/>
       <use xlink:href="#DejaVuSans-35" x="159.033203"/>
      </g>
     </g>
    </g>
    <g id="ytick_3">
     <g id="line2d_9">
      <g>
       <use xlink:href="#m22c03023b4" x="50.14375" y="213.969611" style="stroke: #000000; stroke-width: 0.8"/>
      </g>
     </g>
     <g id="text_10">
      <!-- 0.50 -->
      <g transform="translate(20.878125 217.76883)scale(0.1 -0.1)">
       <use xlink:href="#DejaVuSans-30"/>
       <use xlink:href="#DejaVuSans-2e" x="63.623047"/>
       <use xlink:href="#DejaVuSans-35" x="95.410156"/>
       <use xlink:href="#DejaVuSans-30" x="159.033203"/>
      </g>
     </g>
    </g>
    <g id="ytick_4">
     <g id="line2d_10">
      <g>
       <use xlink:href="#m22c03023b4" x="50.14375" y="184.298416" style="stroke: #000000; stroke-width: 0.8"/>
      </g>
     </g>
     <g id="text_11">
      <!-- 0.75 -->
      <g transform="translate(20.878125 188.097635)scale(0.1 -0.1)">
       <defs>
        <path id="DejaVuSans-37" d="M 525 4666 
L 3525 4666 
L 3525 4397 
L 1831 0 
L 1172 0 
L 2766 4134 
L 525 4134 
L 525 4666 
z
" transform="scale(0.015625)"/>
       </defs>
       <use xlink:href="#DejaVuSans-30"/>
       <use xlink:href="#DejaVuSans-2e" x="63.623047"/>
       <use xlink:href="#DejaVuSans-37" x="95.410156"/>
       <use xlink:href="#DejaVuSans-35" x="159.033203"/>
      </g>
     </g>
    </g>
    <g id="ytick_5">
     <g id="line2d_11">
      <g>
       <use xlink:href="#m22c03023b4" x="50.14375" y="154.627222" style="stroke: #000000; stroke-width: 0.8"/>
      </g>
     </g>
     <g id="text_12">
      <!-- 1.00 -->
      <g transform="translate(20.878125 158.42644)scale(0.1 -0.1)">
       <use xlink:href="#DejaVuSans-31"/>
       <use xlink:href="#DejaVuSans-2e" x="63.623047"/>
       <use xlink:href="#DejaVuSans-30" x="95.410156"/>
       <use xlink:href="#DejaVuSans-30" x="159.033203"/>
      </g>
     </g>
    </g>
    <g id="ytick_6">
     <g id="line2d_12">
      <g>
       <use xlink:href="#m22c03023b4" x="50.14375" y="124.956027" style="stroke: #000000; stroke-width: 0.8"/>
      </g>
     </g>
     <g id="text_13">
      <!-- 1.25 -->
      <g transform="translate(20.878125 128.755246)scale(0.1 -0.1)">
       <use xlink:href="#DejaVuSans-31"/>
       <use xlink:href="#DejaVuSans-2e" x="63.623047"/>
       <use xlink:href="#DejaVuSans-32" x="95.410156"/>
       <use xlink:href="#DejaVuSans-35" x="159.033203"/>
      </g>
     </g>
    </g>
    <g id="ytick_7">
     <g id="line2d_13">
      <g>
       <use xlink:href="#m22c03023b4" x="50.14375" y="95.284832" style="stroke: #000000; stroke-width: 0.8"/>
      </g>
     </g>
     <g id="text_14">
      <!-- 1.50 -->
      <g transform="translate(20.878125 99.084051)scale(0.1 -0.1)">
       <use xlink:href="#DejaVuSans-31"/>
       <use xlink:href="#DejaVuSans-2e" x="63.623047"/>
       <use xlink:href="#DejaVuSans-35" x="95.410156"/>
       <use xlink:href="#DejaVuSans-30" x="159.033203"/>
      </g>
     </g>
    </g>
    <g id="ytick_8">
     <g id="line2d_14">
      <g>
       <use xlink:href="#m22c03023b4" x="50.14375" y="65.613638" style="stroke: #000000; stroke-width: 0.8"/>
      </g>
     </g>
     <g id="text_15">
      <!-- 1.75 -->
      <g transform="translate(20.878125 69.412857)scale(0.1 -0.1)">
       <use xlink:href="#DejaVuSans-31"/>
       <use xlink:href="#DejaVuSans-2e" x="63.623047"/>
       <use xlink:href="#DejaVuSans-37" x="95.410156"/>
       <use xlink:href="#DejaVuSans-35" x="159.033203"/>
      </g>
     </g>
    </g>
    <g id="ytick_9">
     <g id="line2d_15">
      <g>
       <use xlink:href="#m22c03023b4" x="50.14375" y="35.942443" style="stroke: #000000; stroke-width: 0.8"/>
      </g>
     </g>
     <g id="text_16">
      <!-- 2.00 -->
      <g transform="translate(20.878125 39.741662)scale(0.1 -0.1)">
       <use xlink:href="#DejaVuSans-32"/>
       <use xlink:href="#DejaVuSans-2e" x="63.623047"/>
       <use xlink:href="#DejaVuSans-30" x="95.410156"/>
       <use xlink:href="#DejaVuSans-30" x="159.033203"/>
      </g>
     </g>
    </g>
    <g id="text_17">
     <!-- Probability density -->
     <g transform="translate(14.798438 186.606781)rotate(-90)scale(0.1 -0.1)">
      <defs>
       <path id="DejaVuSans-62" d="M 3116 1747 
Q 3116 2381 2855 2742 
Q 2594 3103 2138 3103 
Q 1681 3103 1420 2742 
Q 1159 2381 1159 1747 
Q 1159 1113 1420 752 
Q 1681 391 2138 391 
Q 2594 391 2855 752 
Q 3116 1113 3116 1747 
z
M 1159 2969 
Q 1341 3281 1617 3432 
Q 1894 3584 2278 3584 
Q 2916 3584 3314 3078 
Q 3713 2572 3713 1747 
Q 3713 922 3314 415 
Q 2916 -91 2278 -91 
Q 1894 -91 1617 61 
Q 1341 213 1159 525 
L 1159 0 
L 581 0 
L 581 4863 
L 1159 4863 
L 1159 2969 
z
" transform="scale(0.015625)"/>
       <path id="DejaVuSans-6c" d="M 603 4863 
L 1178 4863 
L 1178 0 
L 603 0 
L 603 4863 
z
" transform="scale(0.015625)"/>
       <path id="DejaVuSans-79" d="M 2059 -325 
Q 1816 -950 1584 -1140 
Q 1353 -1331 966 -1331 
L 506 -1331 
L 506 -850 
L 844 -850 
Q 1081 -850 1212 -737 
Q 1344 -625 1503 -206 
L 1606 56 
L 191 3500 
L 800 3500 
L 1894 763 
L 2988 3500 
L 3597 3500 
L 2059 -325 
z
" transform="scale(0.015625)"/>
       <path id="DejaVuSans-73" d="M 2834 3397 
L 2834 2853 
Q 2591 2978 2328 3040 
Q 2066 3103 1784 3103 
Q 1356 3103 1142 2972 
Q 928 2841 928 2578 
Q 928 2378 1081 2264 
Q 1234 2150 1697 2047 
L 1894 2003 
Q 2506 1872 2764 1633 
Q 3022 1394 3022 966 
Q 3022 478 2636 193 
Q 2250 -91 1575 -91 
Q 1294 -91 989 -36 
Q 684 19 347 128 
L 347 722 
Q 666 556 975 473 
Q 1284 391 1588 391 
Q 1994 391 2212 530 
Q 2431 669 2431 922 
Q 2431 1156 2273 1281 
Q 2116 1406 1581 1522 
L 1381 1569 
Q 847 1681 609 1914 
Q 372 2147 372 2553 
Q 372 3047 722 3315 
Q 1072 3584 1716 3584 
Q 2034 3584 2315 3537 
Q 2597 3491 2834 3397 
z
" transform="scale(0.015625)"/>
      </defs>
      <use xlink:href="#DejaVuSans-50"/>
      <use xlink:href="#DejaVuSans-72" x="58.552734"/>
      <use xlink:href="#DejaVuSans-6f" x="97.416016"/>
      <use xlink:href="#DejaVuSans-62" x="158.597656"/>
      <use xlink:href="#DejaVuSans-61" x="222.074219"/>
      <use xlink:href="#DejaVuSans-62" x="283.353516"/>
      <use xlink:href="#DejaVuSans-69" x="346.830078"/>
      <use xlink:href="#DejaVuSans-6c" x="374.613281"/>
      <use xlink:href="#DejaVuSans-69" x="402.396484"/>
      <use xlink:href="#DejaVuSans-74" x="430.179688"/>
      <use xlink:href="#DejaVuSans-79" x="469.388672"/>
      <use xlink:href="#DejaVuSans-20" x="528.568359"/>
      <use xlink:href="#DejaVuSans-64" x="560.355469"/>
      <use xlink:href="#DejaVuSans-65" x="623.832031"/>
      <use xlink:href="#DejaVuSans-6e" x="685.355469"/>
      <use xlink:href="#DejaVuSans-73" x="748.734375"/>
      <use xlink:href="#DejaVuSans-69" x="800.833984"/>
      <use xlink:href="#DejaVuSans-74" x="828.617188"/>
      <use xlink:href="#DejaVuSans-79" x="867.826172"/>
     </g>
    </g>
   </g>
   <g id="line2d_16">
    <path d="M 66.376477 273.312 
L 391.031023 35.942443 
L 391.031023 35.942443 
" clip-path="url(#pc5f498a75d)" style="fill: none; stroke: #ff7f0e; stroke-width: 1.5; stroke-linecap: square"/>
   </g>
   <g id="patch_203">
    <path d="M 50.14375 273.312 
L 50.14375 7.2 
" style="fill: none; stroke: #000000; stroke-width: 0.8; stroke-linejoin: miter; stroke-linecap: square"/>
   </g>
   <g id="patch_204">
    <path d="M 407.26375 273.312 
L 407.26375 7.2 
" style="fill: none; stroke: #000000; stroke-width: 0.8; stroke-linejoin: miter; stroke-linecap: square"/>
   </g>
   <g id="patch_205">
    <path d="M 50.14375 273.312 
L 407.26375 273.312 
" style="fill: none; stroke: #000000; stroke-width: 0.8; stroke-linejoin: miter; stroke-linecap: square"/>
   </g>
   <g id="patch_206">
    <path d="M 50.14375 7.2 
L 407.26375 7.2 
" style="fill: none; stroke: #000000; stroke-width: 0.8; stroke-linejoin: miter; stroke-linecap: square"/>
   </g>
  </g>
 </g>
 <defs>
  <clipPath id="pc5f498a75d">
   <rect x="50.14375" y="7.2" width="357.12" height="266.112"/>
  </clipPath>
 </defs>
</svg>
